G75*
%MOIN*%
%OFA0B0*%
%FSLAX25Y25*%
%IPPOS*%
%LPD*%
%AMOC8*
5,1,8,0,0,1.08239X$1,22.5*
%
%ADD10C,0.00000*%
%ADD11C,0.01600*%
%ADD12R,0.05906X0.09449*%
%ADD13C,0.00875*%
%ADD14R,0.04500X0.04000*%
%ADD15R,0.04724X0.04000*%
%ADD16R,0.08700X0.02400*%
D10*
X0005834Y0009308D02*
X0005836Y0009433D01*
X0005842Y0009558D01*
X0005852Y0009682D01*
X0005866Y0009806D01*
X0005883Y0009930D01*
X0005905Y0010053D01*
X0005931Y0010175D01*
X0005960Y0010297D01*
X0005993Y0010417D01*
X0006031Y0010536D01*
X0006071Y0010655D01*
X0006116Y0010771D01*
X0006164Y0010886D01*
X0006216Y0011000D01*
X0006272Y0011112D01*
X0006331Y0011222D01*
X0006393Y0011330D01*
X0006459Y0011437D01*
X0006528Y0011541D01*
X0006601Y0011642D01*
X0006676Y0011742D01*
X0006755Y0011839D01*
X0006837Y0011933D01*
X0006922Y0012025D01*
X0007009Y0012114D01*
X0007100Y0012200D01*
X0007193Y0012283D01*
X0007289Y0012364D01*
X0007387Y0012441D01*
X0007487Y0012515D01*
X0007590Y0012586D01*
X0007695Y0012653D01*
X0007803Y0012718D01*
X0007912Y0012778D01*
X0008023Y0012836D01*
X0008136Y0012889D01*
X0008250Y0012939D01*
X0008366Y0012986D01*
X0008483Y0013028D01*
X0008602Y0013067D01*
X0008722Y0013103D01*
X0008843Y0013134D01*
X0008965Y0013162D01*
X0009087Y0013185D01*
X0009211Y0013205D01*
X0009335Y0013221D01*
X0009459Y0013233D01*
X0009584Y0013241D01*
X0009709Y0013245D01*
X0009833Y0013245D01*
X0009958Y0013241D01*
X0010083Y0013233D01*
X0010207Y0013221D01*
X0010331Y0013205D01*
X0010455Y0013185D01*
X0010577Y0013162D01*
X0010699Y0013134D01*
X0010820Y0013103D01*
X0010940Y0013067D01*
X0011059Y0013028D01*
X0011176Y0012986D01*
X0011292Y0012939D01*
X0011406Y0012889D01*
X0011519Y0012836D01*
X0011630Y0012778D01*
X0011740Y0012718D01*
X0011847Y0012653D01*
X0011952Y0012586D01*
X0012055Y0012515D01*
X0012155Y0012441D01*
X0012253Y0012364D01*
X0012349Y0012283D01*
X0012442Y0012200D01*
X0012533Y0012114D01*
X0012620Y0012025D01*
X0012705Y0011933D01*
X0012787Y0011839D01*
X0012866Y0011742D01*
X0012941Y0011642D01*
X0013014Y0011541D01*
X0013083Y0011437D01*
X0013149Y0011330D01*
X0013211Y0011222D01*
X0013270Y0011112D01*
X0013326Y0011000D01*
X0013378Y0010886D01*
X0013426Y0010771D01*
X0013471Y0010655D01*
X0013511Y0010536D01*
X0013549Y0010417D01*
X0013582Y0010297D01*
X0013611Y0010175D01*
X0013637Y0010053D01*
X0013659Y0009930D01*
X0013676Y0009806D01*
X0013690Y0009682D01*
X0013700Y0009558D01*
X0013706Y0009433D01*
X0013708Y0009308D01*
X0013706Y0009183D01*
X0013700Y0009058D01*
X0013690Y0008934D01*
X0013676Y0008810D01*
X0013659Y0008686D01*
X0013637Y0008563D01*
X0013611Y0008441D01*
X0013582Y0008319D01*
X0013549Y0008199D01*
X0013511Y0008080D01*
X0013471Y0007961D01*
X0013426Y0007845D01*
X0013378Y0007730D01*
X0013326Y0007616D01*
X0013270Y0007504D01*
X0013211Y0007394D01*
X0013149Y0007286D01*
X0013083Y0007179D01*
X0013014Y0007075D01*
X0012941Y0006974D01*
X0012866Y0006874D01*
X0012787Y0006777D01*
X0012705Y0006683D01*
X0012620Y0006591D01*
X0012533Y0006502D01*
X0012442Y0006416D01*
X0012349Y0006333D01*
X0012253Y0006252D01*
X0012155Y0006175D01*
X0012055Y0006101D01*
X0011952Y0006030D01*
X0011847Y0005963D01*
X0011739Y0005898D01*
X0011630Y0005838D01*
X0011519Y0005780D01*
X0011406Y0005727D01*
X0011292Y0005677D01*
X0011176Y0005630D01*
X0011059Y0005588D01*
X0010940Y0005549D01*
X0010820Y0005513D01*
X0010699Y0005482D01*
X0010577Y0005454D01*
X0010455Y0005431D01*
X0010331Y0005411D01*
X0010207Y0005395D01*
X0010083Y0005383D01*
X0009958Y0005375D01*
X0009833Y0005371D01*
X0009709Y0005371D01*
X0009584Y0005375D01*
X0009459Y0005383D01*
X0009335Y0005395D01*
X0009211Y0005411D01*
X0009087Y0005431D01*
X0008965Y0005454D01*
X0008843Y0005482D01*
X0008722Y0005513D01*
X0008602Y0005549D01*
X0008483Y0005588D01*
X0008366Y0005630D01*
X0008250Y0005677D01*
X0008136Y0005727D01*
X0008023Y0005780D01*
X0007912Y0005838D01*
X0007802Y0005898D01*
X0007695Y0005963D01*
X0007590Y0006030D01*
X0007487Y0006101D01*
X0007387Y0006175D01*
X0007289Y0006252D01*
X0007193Y0006333D01*
X0007100Y0006416D01*
X0007009Y0006502D01*
X0006922Y0006591D01*
X0006837Y0006683D01*
X0006755Y0006777D01*
X0006676Y0006874D01*
X0006601Y0006974D01*
X0006528Y0007075D01*
X0006459Y0007179D01*
X0006393Y0007286D01*
X0006331Y0007394D01*
X0006272Y0007504D01*
X0006216Y0007616D01*
X0006164Y0007730D01*
X0006116Y0007845D01*
X0006071Y0007961D01*
X0006031Y0008080D01*
X0005993Y0008199D01*
X0005960Y0008319D01*
X0005931Y0008441D01*
X0005905Y0008563D01*
X0005883Y0008686D01*
X0005866Y0008810D01*
X0005852Y0008934D01*
X0005842Y0009058D01*
X0005836Y0009183D01*
X0005834Y0009308D01*
X0126315Y0023005D02*
X0126317Y0023130D01*
X0126323Y0023255D01*
X0126333Y0023379D01*
X0126347Y0023503D01*
X0126364Y0023627D01*
X0126386Y0023750D01*
X0126412Y0023872D01*
X0126441Y0023994D01*
X0126474Y0024114D01*
X0126512Y0024233D01*
X0126552Y0024352D01*
X0126597Y0024468D01*
X0126645Y0024583D01*
X0126697Y0024697D01*
X0126753Y0024809D01*
X0126812Y0024919D01*
X0126874Y0025027D01*
X0126940Y0025134D01*
X0127009Y0025238D01*
X0127082Y0025339D01*
X0127157Y0025439D01*
X0127236Y0025536D01*
X0127318Y0025630D01*
X0127403Y0025722D01*
X0127490Y0025811D01*
X0127581Y0025897D01*
X0127674Y0025980D01*
X0127770Y0026061D01*
X0127868Y0026138D01*
X0127968Y0026212D01*
X0128071Y0026283D01*
X0128176Y0026350D01*
X0128284Y0026415D01*
X0128393Y0026475D01*
X0128504Y0026533D01*
X0128617Y0026586D01*
X0128731Y0026636D01*
X0128847Y0026683D01*
X0128964Y0026725D01*
X0129083Y0026764D01*
X0129203Y0026800D01*
X0129324Y0026831D01*
X0129446Y0026859D01*
X0129568Y0026882D01*
X0129692Y0026902D01*
X0129816Y0026918D01*
X0129940Y0026930D01*
X0130065Y0026938D01*
X0130190Y0026942D01*
X0130314Y0026942D01*
X0130439Y0026938D01*
X0130564Y0026930D01*
X0130688Y0026918D01*
X0130812Y0026902D01*
X0130936Y0026882D01*
X0131058Y0026859D01*
X0131180Y0026831D01*
X0131301Y0026800D01*
X0131421Y0026764D01*
X0131540Y0026725D01*
X0131657Y0026683D01*
X0131773Y0026636D01*
X0131887Y0026586D01*
X0132000Y0026533D01*
X0132111Y0026475D01*
X0132221Y0026415D01*
X0132328Y0026350D01*
X0132433Y0026283D01*
X0132536Y0026212D01*
X0132636Y0026138D01*
X0132734Y0026061D01*
X0132830Y0025980D01*
X0132923Y0025897D01*
X0133014Y0025811D01*
X0133101Y0025722D01*
X0133186Y0025630D01*
X0133268Y0025536D01*
X0133347Y0025439D01*
X0133422Y0025339D01*
X0133495Y0025238D01*
X0133564Y0025134D01*
X0133630Y0025027D01*
X0133692Y0024919D01*
X0133751Y0024809D01*
X0133807Y0024697D01*
X0133859Y0024583D01*
X0133907Y0024468D01*
X0133952Y0024352D01*
X0133992Y0024233D01*
X0134030Y0024114D01*
X0134063Y0023994D01*
X0134092Y0023872D01*
X0134118Y0023750D01*
X0134140Y0023627D01*
X0134157Y0023503D01*
X0134171Y0023379D01*
X0134181Y0023255D01*
X0134187Y0023130D01*
X0134189Y0023005D01*
X0134187Y0022880D01*
X0134181Y0022755D01*
X0134171Y0022631D01*
X0134157Y0022507D01*
X0134140Y0022383D01*
X0134118Y0022260D01*
X0134092Y0022138D01*
X0134063Y0022016D01*
X0134030Y0021896D01*
X0133992Y0021777D01*
X0133952Y0021658D01*
X0133907Y0021542D01*
X0133859Y0021427D01*
X0133807Y0021313D01*
X0133751Y0021201D01*
X0133692Y0021091D01*
X0133630Y0020983D01*
X0133564Y0020876D01*
X0133495Y0020772D01*
X0133422Y0020671D01*
X0133347Y0020571D01*
X0133268Y0020474D01*
X0133186Y0020380D01*
X0133101Y0020288D01*
X0133014Y0020199D01*
X0132923Y0020113D01*
X0132830Y0020030D01*
X0132734Y0019949D01*
X0132636Y0019872D01*
X0132536Y0019798D01*
X0132433Y0019727D01*
X0132328Y0019660D01*
X0132220Y0019595D01*
X0132111Y0019535D01*
X0132000Y0019477D01*
X0131887Y0019424D01*
X0131773Y0019374D01*
X0131657Y0019327D01*
X0131540Y0019285D01*
X0131421Y0019246D01*
X0131301Y0019210D01*
X0131180Y0019179D01*
X0131058Y0019151D01*
X0130936Y0019128D01*
X0130812Y0019108D01*
X0130688Y0019092D01*
X0130564Y0019080D01*
X0130439Y0019072D01*
X0130314Y0019068D01*
X0130190Y0019068D01*
X0130065Y0019072D01*
X0129940Y0019080D01*
X0129816Y0019092D01*
X0129692Y0019108D01*
X0129568Y0019128D01*
X0129446Y0019151D01*
X0129324Y0019179D01*
X0129203Y0019210D01*
X0129083Y0019246D01*
X0128964Y0019285D01*
X0128847Y0019327D01*
X0128731Y0019374D01*
X0128617Y0019424D01*
X0128504Y0019477D01*
X0128393Y0019535D01*
X0128283Y0019595D01*
X0128176Y0019660D01*
X0128071Y0019727D01*
X0127968Y0019798D01*
X0127868Y0019872D01*
X0127770Y0019949D01*
X0127674Y0020030D01*
X0127581Y0020113D01*
X0127490Y0020199D01*
X0127403Y0020288D01*
X0127318Y0020380D01*
X0127236Y0020474D01*
X0127157Y0020571D01*
X0127082Y0020671D01*
X0127009Y0020772D01*
X0126940Y0020876D01*
X0126874Y0020983D01*
X0126812Y0021091D01*
X0126753Y0021201D01*
X0126697Y0021313D01*
X0126645Y0021427D01*
X0126597Y0021542D01*
X0126552Y0021658D01*
X0126512Y0021777D01*
X0126474Y0021896D01*
X0126441Y0022016D01*
X0126412Y0022138D01*
X0126386Y0022260D01*
X0126364Y0022383D01*
X0126347Y0022507D01*
X0126333Y0022631D01*
X0126323Y0022755D01*
X0126317Y0022880D01*
X0126315Y0023005D01*
X0184319Y0008800D02*
X0184321Y0008925D01*
X0184327Y0009050D01*
X0184337Y0009174D01*
X0184351Y0009298D01*
X0184368Y0009422D01*
X0184390Y0009545D01*
X0184416Y0009667D01*
X0184445Y0009789D01*
X0184478Y0009909D01*
X0184516Y0010028D01*
X0184556Y0010147D01*
X0184601Y0010263D01*
X0184649Y0010378D01*
X0184701Y0010492D01*
X0184757Y0010604D01*
X0184816Y0010714D01*
X0184878Y0010822D01*
X0184944Y0010929D01*
X0185013Y0011033D01*
X0185086Y0011134D01*
X0185161Y0011234D01*
X0185240Y0011331D01*
X0185322Y0011425D01*
X0185407Y0011517D01*
X0185494Y0011606D01*
X0185585Y0011692D01*
X0185678Y0011775D01*
X0185774Y0011856D01*
X0185872Y0011933D01*
X0185972Y0012007D01*
X0186075Y0012078D01*
X0186180Y0012145D01*
X0186288Y0012210D01*
X0186397Y0012270D01*
X0186508Y0012328D01*
X0186621Y0012381D01*
X0186735Y0012431D01*
X0186851Y0012478D01*
X0186968Y0012520D01*
X0187087Y0012559D01*
X0187207Y0012595D01*
X0187328Y0012626D01*
X0187450Y0012654D01*
X0187572Y0012677D01*
X0187696Y0012697D01*
X0187820Y0012713D01*
X0187944Y0012725D01*
X0188069Y0012733D01*
X0188194Y0012737D01*
X0188318Y0012737D01*
X0188443Y0012733D01*
X0188568Y0012725D01*
X0188692Y0012713D01*
X0188816Y0012697D01*
X0188940Y0012677D01*
X0189062Y0012654D01*
X0189184Y0012626D01*
X0189305Y0012595D01*
X0189425Y0012559D01*
X0189544Y0012520D01*
X0189661Y0012478D01*
X0189777Y0012431D01*
X0189891Y0012381D01*
X0190004Y0012328D01*
X0190115Y0012270D01*
X0190225Y0012210D01*
X0190332Y0012145D01*
X0190437Y0012078D01*
X0190540Y0012007D01*
X0190640Y0011933D01*
X0190738Y0011856D01*
X0190834Y0011775D01*
X0190927Y0011692D01*
X0191018Y0011606D01*
X0191105Y0011517D01*
X0191190Y0011425D01*
X0191272Y0011331D01*
X0191351Y0011234D01*
X0191426Y0011134D01*
X0191499Y0011033D01*
X0191568Y0010929D01*
X0191634Y0010822D01*
X0191696Y0010714D01*
X0191755Y0010604D01*
X0191811Y0010492D01*
X0191863Y0010378D01*
X0191911Y0010263D01*
X0191956Y0010147D01*
X0191996Y0010028D01*
X0192034Y0009909D01*
X0192067Y0009789D01*
X0192096Y0009667D01*
X0192122Y0009545D01*
X0192144Y0009422D01*
X0192161Y0009298D01*
X0192175Y0009174D01*
X0192185Y0009050D01*
X0192191Y0008925D01*
X0192193Y0008800D01*
X0192191Y0008675D01*
X0192185Y0008550D01*
X0192175Y0008426D01*
X0192161Y0008302D01*
X0192144Y0008178D01*
X0192122Y0008055D01*
X0192096Y0007933D01*
X0192067Y0007811D01*
X0192034Y0007691D01*
X0191996Y0007572D01*
X0191956Y0007453D01*
X0191911Y0007337D01*
X0191863Y0007222D01*
X0191811Y0007108D01*
X0191755Y0006996D01*
X0191696Y0006886D01*
X0191634Y0006778D01*
X0191568Y0006671D01*
X0191499Y0006567D01*
X0191426Y0006466D01*
X0191351Y0006366D01*
X0191272Y0006269D01*
X0191190Y0006175D01*
X0191105Y0006083D01*
X0191018Y0005994D01*
X0190927Y0005908D01*
X0190834Y0005825D01*
X0190738Y0005744D01*
X0190640Y0005667D01*
X0190540Y0005593D01*
X0190437Y0005522D01*
X0190332Y0005455D01*
X0190224Y0005390D01*
X0190115Y0005330D01*
X0190004Y0005272D01*
X0189891Y0005219D01*
X0189777Y0005169D01*
X0189661Y0005122D01*
X0189544Y0005080D01*
X0189425Y0005041D01*
X0189305Y0005005D01*
X0189184Y0004974D01*
X0189062Y0004946D01*
X0188940Y0004923D01*
X0188816Y0004903D01*
X0188692Y0004887D01*
X0188568Y0004875D01*
X0188443Y0004867D01*
X0188318Y0004863D01*
X0188194Y0004863D01*
X0188069Y0004867D01*
X0187944Y0004875D01*
X0187820Y0004887D01*
X0187696Y0004903D01*
X0187572Y0004923D01*
X0187450Y0004946D01*
X0187328Y0004974D01*
X0187207Y0005005D01*
X0187087Y0005041D01*
X0186968Y0005080D01*
X0186851Y0005122D01*
X0186735Y0005169D01*
X0186621Y0005219D01*
X0186508Y0005272D01*
X0186397Y0005330D01*
X0186287Y0005390D01*
X0186180Y0005455D01*
X0186075Y0005522D01*
X0185972Y0005593D01*
X0185872Y0005667D01*
X0185774Y0005744D01*
X0185678Y0005825D01*
X0185585Y0005908D01*
X0185494Y0005994D01*
X0185407Y0006083D01*
X0185322Y0006175D01*
X0185240Y0006269D01*
X0185161Y0006366D01*
X0185086Y0006466D01*
X0185013Y0006567D01*
X0184944Y0006671D01*
X0184878Y0006778D01*
X0184816Y0006886D01*
X0184757Y0006996D01*
X0184701Y0007108D01*
X0184649Y0007222D01*
X0184601Y0007337D01*
X0184556Y0007453D01*
X0184516Y0007572D01*
X0184478Y0007691D01*
X0184445Y0007811D01*
X0184416Y0007933D01*
X0184390Y0008055D01*
X0184368Y0008178D01*
X0184351Y0008302D01*
X0184337Y0008426D01*
X0184327Y0008550D01*
X0184321Y0008675D01*
X0184319Y0008800D01*
X0184834Y0188308D02*
X0184836Y0188433D01*
X0184842Y0188558D01*
X0184852Y0188682D01*
X0184866Y0188806D01*
X0184883Y0188930D01*
X0184905Y0189053D01*
X0184931Y0189175D01*
X0184960Y0189297D01*
X0184993Y0189417D01*
X0185031Y0189536D01*
X0185071Y0189655D01*
X0185116Y0189771D01*
X0185164Y0189886D01*
X0185216Y0190000D01*
X0185272Y0190112D01*
X0185331Y0190222D01*
X0185393Y0190330D01*
X0185459Y0190437D01*
X0185528Y0190541D01*
X0185601Y0190642D01*
X0185676Y0190742D01*
X0185755Y0190839D01*
X0185837Y0190933D01*
X0185922Y0191025D01*
X0186009Y0191114D01*
X0186100Y0191200D01*
X0186193Y0191283D01*
X0186289Y0191364D01*
X0186387Y0191441D01*
X0186487Y0191515D01*
X0186590Y0191586D01*
X0186695Y0191653D01*
X0186803Y0191718D01*
X0186912Y0191778D01*
X0187023Y0191836D01*
X0187136Y0191889D01*
X0187250Y0191939D01*
X0187366Y0191986D01*
X0187483Y0192028D01*
X0187602Y0192067D01*
X0187722Y0192103D01*
X0187843Y0192134D01*
X0187965Y0192162D01*
X0188087Y0192185D01*
X0188211Y0192205D01*
X0188335Y0192221D01*
X0188459Y0192233D01*
X0188584Y0192241D01*
X0188709Y0192245D01*
X0188833Y0192245D01*
X0188958Y0192241D01*
X0189083Y0192233D01*
X0189207Y0192221D01*
X0189331Y0192205D01*
X0189455Y0192185D01*
X0189577Y0192162D01*
X0189699Y0192134D01*
X0189820Y0192103D01*
X0189940Y0192067D01*
X0190059Y0192028D01*
X0190176Y0191986D01*
X0190292Y0191939D01*
X0190406Y0191889D01*
X0190519Y0191836D01*
X0190630Y0191778D01*
X0190740Y0191718D01*
X0190847Y0191653D01*
X0190952Y0191586D01*
X0191055Y0191515D01*
X0191155Y0191441D01*
X0191253Y0191364D01*
X0191349Y0191283D01*
X0191442Y0191200D01*
X0191533Y0191114D01*
X0191620Y0191025D01*
X0191705Y0190933D01*
X0191787Y0190839D01*
X0191866Y0190742D01*
X0191941Y0190642D01*
X0192014Y0190541D01*
X0192083Y0190437D01*
X0192149Y0190330D01*
X0192211Y0190222D01*
X0192270Y0190112D01*
X0192326Y0190000D01*
X0192378Y0189886D01*
X0192426Y0189771D01*
X0192471Y0189655D01*
X0192511Y0189536D01*
X0192549Y0189417D01*
X0192582Y0189297D01*
X0192611Y0189175D01*
X0192637Y0189053D01*
X0192659Y0188930D01*
X0192676Y0188806D01*
X0192690Y0188682D01*
X0192700Y0188558D01*
X0192706Y0188433D01*
X0192708Y0188308D01*
X0192706Y0188183D01*
X0192700Y0188058D01*
X0192690Y0187934D01*
X0192676Y0187810D01*
X0192659Y0187686D01*
X0192637Y0187563D01*
X0192611Y0187441D01*
X0192582Y0187319D01*
X0192549Y0187199D01*
X0192511Y0187080D01*
X0192471Y0186961D01*
X0192426Y0186845D01*
X0192378Y0186730D01*
X0192326Y0186616D01*
X0192270Y0186504D01*
X0192211Y0186394D01*
X0192149Y0186286D01*
X0192083Y0186179D01*
X0192014Y0186075D01*
X0191941Y0185974D01*
X0191866Y0185874D01*
X0191787Y0185777D01*
X0191705Y0185683D01*
X0191620Y0185591D01*
X0191533Y0185502D01*
X0191442Y0185416D01*
X0191349Y0185333D01*
X0191253Y0185252D01*
X0191155Y0185175D01*
X0191055Y0185101D01*
X0190952Y0185030D01*
X0190847Y0184963D01*
X0190739Y0184898D01*
X0190630Y0184838D01*
X0190519Y0184780D01*
X0190406Y0184727D01*
X0190292Y0184677D01*
X0190176Y0184630D01*
X0190059Y0184588D01*
X0189940Y0184549D01*
X0189820Y0184513D01*
X0189699Y0184482D01*
X0189577Y0184454D01*
X0189455Y0184431D01*
X0189331Y0184411D01*
X0189207Y0184395D01*
X0189083Y0184383D01*
X0188958Y0184375D01*
X0188833Y0184371D01*
X0188709Y0184371D01*
X0188584Y0184375D01*
X0188459Y0184383D01*
X0188335Y0184395D01*
X0188211Y0184411D01*
X0188087Y0184431D01*
X0187965Y0184454D01*
X0187843Y0184482D01*
X0187722Y0184513D01*
X0187602Y0184549D01*
X0187483Y0184588D01*
X0187366Y0184630D01*
X0187250Y0184677D01*
X0187136Y0184727D01*
X0187023Y0184780D01*
X0186912Y0184838D01*
X0186802Y0184898D01*
X0186695Y0184963D01*
X0186590Y0185030D01*
X0186487Y0185101D01*
X0186387Y0185175D01*
X0186289Y0185252D01*
X0186193Y0185333D01*
X0186100Y0185416D01*
X0186009Y0185502D01*
X0185922Y0185591D01*
X0185837Y0185683D01*
X0185755Y0185777D01*
X0185676Y0185874D01*
X0185601Y0185974D01*
X0185528Y0186075D01*
X0185459Y0186179D01*
X0185393Y0186286D01*
X0185331Y0186394D01*
X0185272Y0186504D01*
X0185216Y0186616D01*
X0185164Y0186730D01*
X0185116Y0186845D01*
X0185071Y0186961D01*
X0185031Y0187080D01*
X0184993Y0187199D01*
X0184960Y0187319D01*
X0184931Y0187441D01*
X0184905Y0187563D01*
X0184883Y0187686D01*
X0184866Y0187810D01*
X0184852Y0187934D01*
X0184842Y0188058D01*
X0184836Y0188183D01*
X0184834Y0188308D01*
X0006334Y0188308D02*
X0006336Y0188433D01*
X0006342Y0188558D01*
X0006352Y0188682D01*
X0006366Y0188806D01*
X0006383Y0188930D01*
X0006405Y0189053D01*
X0006431Y0189175D01*
X0006460Y0189297D01*
X0006493Y0189417D01*
X0006531Y0189536D01*
X0006571Y0189655D01*
X0006616Y0189771D01*
X0006664Y0189886D01*
X0006716Y0190000D01*
X0006772Y0190112D01*
X0006831Y0190222D01*
X0006893Y0190330D01*
X0006959Y0190437D01*
X0007028Y0190541D01*
X0007101Y0190642D01*
X0007176Y0190742D01*
X0007255Y0190839D01*
X0007337Y0190933D01*
X0007422Y0191025D01*
X0007509Y0191114D01*
X0007600Y0191200D01*
X0007693Y0191283D01*
X0007789Y0191364D01*
X0007887Y0191441D01*
X0007987Y0191515D01*
X0008090Y0191586D01*
X0008195Y0191653D01*
X0008303Y0191718D01*
X0008412Y0191778D01*
X0008523Y0191836D01*
X0008636Y0191889D01*
X0008750Y0191939D01*
X0008866Y0191986D01*
X0008983Y0192028D01*
X0009102Y0192067D01*
X0009222Y0192103D01*
X0009343Y0192134D01*
X0009465Y0192162D01*
X0009587Y0192185D01*
X0009711Y0192205D01*
X0009835Y0192221D01*
X0009959Y0192233D01*
X0010084Y0192241D01*
X0010209Y0192245D01*
X0010333Y0192245D01*
X0010458Y0192241D01*
X0010583Y0192233D01*
X0010707Y0192221D01*
X0010831Y0192205D01*
X0010955Y0192185D01*
X0011077Y0192162D01*
X0011199Y0192134D01*
X0011320Y0192103D01*
X0011440Y0192067D01*
X0011559Y0192028D01*
X0011676Y0191986D01*
X0011792Y0191939D01*
X0011906Y0191889D01*
X0012019Y0191836D01*
X0012130Y0191778D01*
X0012240Y0191718D01*
X0012347Y0191653D01*
X0012452Y0191586D01*
X0012555Y0191515D01*
X0012655Y0191441D01*
X0012753Y0191364D01*
X0012849Y0191283D01*
X0012942Y0191200D01*
X0013033Y0191114D01*
X0013120Y0191025D01*
X0013205Y0190933D01*
X0013287Y0190839D01*
X0013366Y0190742D01*
X0013441Y0190642D01*
X0013514Y0190541D01*
X0013583Y0190437D01*
X0013649Y0190330D01*
X0013711Y0190222D01*
X0013770Y0190112D01*
X0013826Y0190000D01*
X0013878Y0189886D01*
X0013926Y0189771D01*
X0013971Y0189655D01*
X0014011Y0189536D01*
X0014049Y0189417D01*
X0014082Y0189297D01*
X0014111Y0189175D01*
X0014137Y0189053D01*
X0014159Y0188930D01*
X0014176Y0188806D01*
X0014190Y0188682D01*
X0014200Y0188558D01*
X0014206Y0188433D01*
X0014208Y0188308D01*
X0014206Y0188183D01*
X0014200Y0188058D01*
X0014190Y0187934D01*
X0014176Y0187810D01*
X0014159Y0187686D01*
X0014137Y0187563D01*
X0014111Y0187441D01*
X0014082Y0187319D01*
X0014049Y0187199D01*
X0014011Y0187080D01*
X0013971Y0186961D01*
X0013926Y0186845D01*
X0013878Y0186730D01*
X0013826Y0186616D01*
X0013770Y0186504D01*
X0013711Y0186394D01*
X0013649Y0186286D01*
X0013583Y0186179D01*
X0013514Y0186075D01*
X0013441Y0185974D01*
X0013366Y0185874D01*
X0013287Y0185777D01*
X0013205Y0185683D01*
X0013120Y0185591D01*
X0013033Y0185502D01*
X0012942Y0185416D01*
X0012849Y0185333D01*
X0012753Y0185252D01*
X0012655Y0185175D01*
X0012555Y0185101D01*
X0012452Y0185030D01*
X0012347Y0184963D01*
X0012239Y0184898D01*
X0012130Y0184838D01*
X0012019Y0184780D01*
X0011906Y0184727D01*
X0011792Y0184677D01*
X0011676Y0184630D01*
X0011559Y0184588D01*
X0011440Y0184549D01*
X0011320Y0184513D01*
X0011199Y0184482D01*
X0011077Y0184454D01*
X0010955Y0184431D01*
X0010831Y0184411D01*
X0010707Y0184395D01*
X0010583Y0184383D01*
X0010458Y0184375D01*
X0010333Y0184371D01*
X0010209Y0184371D01*
X0010084Y0184375D01*
X0009959Y0184383D01*
X0009835Y0184395D01*
X0009711Y0184411D01*
X0009587Y0184431D01*
X0009465Y0184454D01*
X0009343Y0184482D01*
X0009222Y0184513D01*
X0009102Y0184549D01*
X0008983Y0184588D01*
X0008866Y0184630D01*
X0008750Y0184677D01*
X0008636Y0184727D01*
X0008523Y0184780D01*
X0008412Y0184838D01*
X0008302Y0184898D01*
X0008195Y0184963D01*
X0008090Y0185030D01*
X0007987Y0185101D01*
X0007887Y0185175D01*
X0007789Y0185252D01*
X0007693Y0185333D01*
X0007600Y0185416D01*
X0007509Y0185502D01*
X0007422Y0185591D01*
X0007337Y0185683D01*
X0007255Y0185777D01*
X0007176Y0185874D01*
X0007101Y0185974D01*
X0007028Y0186075D01*
X0006959Y0186179D01*
X0006893Y0186286D01*
X0006831Y0186394D01*
X0006772Y0186504D01*
X0006716Y0186616D01*
X0006664Y0186730D01*
X0006616Y0186845D01*
X0006571Y0186961D01*
X0006531Y0187080D01*
X0006493Y0187199D01*
X0006460Y0187319D01*
X0006431Y0187441D01*
X0006405Y0187563D01*
X0006383Y0187686D01*
X0006366Y0187810D01*
X0006352Y0187934D01*
X0006342Y0188058D01*
X0006336Y0188183D01*
X0006334Y0188308D01*
D11*
X0002271Y0001808D02*
X0197122Y0001808D01*
X0197122Y0196658D01*
X0002271Y0196658D01*
X0002271Y0001808D01*
D12*
X0063795Y0011820D03*
X0081905Y0011820D03*
D13*
X0076584Y0025121D02*
X0073958Y0025121D01*
X0076584Y0025121D02*
X0076584Y0022495D01*
X0073958Y0022495D01*
X0073958Y0025121D01*
X0073958Y0023369D02*
X0076584Y0023369D01*
X0076584Y0024243D02*
X0073958Y0024243D01*
X0073958Y0025117D02*
X0076584Y0025117D01*
X0070584Y0025121D02*
X0067958Y0025121D01*
X0070584Y0025121D02*
X0070584Y0022495D01*
X0067958Y0022495D01*
X0067958Y0025121D01*
X0067958Y0023369D02*
X0070584Y0023369D01*
X0070584Y0024243D02*
X0067958Y0024243D01*
X0067958Y0025117D02*
X0070584Y0025117D01*
X0043084Y0055621D02*
X0040458Y0055621D01*
X0043084Y0055621D02*
X0043084Y0052995D01*
X0040458Y0052995D01*
X0040458Y0055621D01*
X0040458Y0053869D02*
X0043084Y0053869D01*
X0043084Y0054743D02*
X0040458Y0054743D01*
X0040458Y0055617D02*
X0043084Y0055617D01*
X0037084Y0055621D02*
X0034458Y0055621D01*
X0037084Y0055621D02*
X0037084Y0052995D01*
X0034458Y0052995D01*
X0034458Y0055621D01*
X0034458Y0053869D02*
X0037084Y0053869D01*
X0037084Y0054743D02*
X0034458Y0054743D01*
X0034458Y0055617D02*
X0037084Y0055617D01*
X0034458Y0038621D02*
X0034458Y0035995D01*
X0034458Y0038621D02*
X0037084Y0038621D01*
X0037084Y0035995D01*
X0034458Y0035995D01*
X0034458Y0036869D02*
X0037084Y0036869D01*
X0037084Y0037743D02*
X0034458Y0037743D01*
X0034458Y0038617D02*
X0037084Y0038617D01*
X0034458Y0032621D02*
X0034458Y0029995D01*
X0034458Y0032621D02*
X0037084Y0032621D01*
X0037084Y0029995D01*
X0034458Y0029995D01*
X0034458Y0030869D02*
X0037084Y0030869D01*
X0037084Y0031743D02*
X0034458Y0031743D01*
X0034458Y0032617D02*
X0037084Y0032617D01*
X0145131Y0054495D02*
X0147757Y0054495D01*
X0147757Y0051869D01*
X0145131Y0051869D01*
X0145131Y0054495D01*
X0145131Y0052743D02*
X0147757Y0052743D01*
X0147757Y0053617D02*
X0145131Y0053617D01*
X0145131Y0054491D02*
X0147757Y0054491D01*
X0151131Y0054495D02*
X0153757Y0054495D01*
X0153757Y0051869D01*
X0151131Y0051869D01*
X0151131Y0054495D01*
X0151131Y0052743D02*
X0153757Y0052743D01*
X0153757Y0053617D02*
X0151131Y0053617D01*
X0151131Y0054491D02*
X0153757Y0054491D01*
X0165777Y0067806D02*
X0165777Y0070432D01*
X0165777Y0067806D02*
X0163151Y0067806D01*
X0163151Y0070432D01*
X0165777Y0070432D01*
X0165777Y0068680D02*
X0163151Y0068680D01*
X0163151Y0069554D02*
X0165777Y0069554D01*
X0165777Y0070428D02*
X0163151Y0070428D01*
X0165777Y0073806D02*
X0165777Y0076432D01*
X0165777Y0073806D02*
X0163151Y0073806D01*
X0163151Y0076432D01*
X0165777Y0076432D01*
X0165777Y0074680D02*
X0163151Y0074680D01*
X0163151Y0075554D02*
X0165777Y0075554D01*
X0165777Y0076428D02*
X0163151Y0076428D01*
X0092584Y0145495D02*
X0092584Y0148121D01*
X0092584Y0145495D02*
X0089958Y0145495D01*
X0089958Y0148121D01*
X0092584Y0148121D01*
X0092584Y0146369D02*
X0089958Y0146369D01*
X0089958Y0147243D02*
X0092584Y0147243D01*
X0092584Y0148117D02*
X0089958Y0148117D01*
X0092584Y0151495D02*
X0092584Y0154121D01*
X0092584Y0151495D02*
X0089958Y0151495D01*
X0089958Y0154121D01*
X0092584Y0154121D01*
X0092584Y0152369D02*
X0089958Y0152369D01*
X0089958Y0153243D02*
X0092584Y0153243D01*
X0092584Y0154117D02*
X0089958Y0154117D01*
X0080084Y0160495D02*
X0077458Y0160495D01*
X0077458Y0163121D01*
X0080084Y0163121D01*
X0080084Y0160495D01*
X0080084Y0161369D02*
X0077458Y0161369D01*
X0077458Y0162243D02*
X0080084Y0162243D01*
X0080084Y0163117D02*
X0077458Y0163117D01*
X0074084Y0160495D02*
X0071458Y0160495D01*
X0071458Y0163121D01*
X0074084Y0163121D01*
X0074084Y0160495D01*
X0074084Y0161369D02*
X0071458Y0161369D01*
X0071458Y0162243D02*
X0074084Y0162243D01*
X0074084Y0163117D02*
X0071458Y0163117D01*
D14*
X0079437Y0153792D03*
X0079437Y0146792D03*
X0071437Y0150292D03*
D15*
X0145763Y0072119D03*
X0154110Y0075859D03*
X0154110Y0068379D03*
D16*
X0068071Y0047308D03*
X0068071Y0042308D03*
X0068071Y0037308D03*
X0068071Y0032308D03*
X0047471Y0032308D03*
X0047471Y0037308D03*
X0047471Y0042308D03*
X0047471Y0047308D03*
M02*
