G75*
%MOIN*%
%OFA0B0*%
%FSLAX25Y25*%
%IPPOS*%
%LPD*%
%AMOC8*
5,1,8,0,0,1.08239X$1,22.5*
%
%ADD10C,0.00000*%
%ADD11C,0.01600*%
%ADD12C,0.00875*%
%ADD13R,0.05150X0.05150*%
%ADD14C,0.05150*%
%ADD15C,0.07677*%
%ADD16C,0.06400*%
%ADD17R,0.06500X0.06500*%
%ADD18C,0.06500*%
%ADD19R,0.05937X0.05937*%
%ADD20C,0.05937*%
%ADD21R,0.02500X0.05000*%
%ADD22R,0.05000X0.02500*%
%ADD23R,0.03562X0.03562*%
%ADD24C,0.01000*%
%ADD25C,0.03562*%
%ADD26C,0.01500*%
%ADD27C,0.02700*%
%ADD28C,0.02400*%
D10*
X0005834Y0009308D02*
X0005836Y0009433D01*
X0005842Y0009558D01*
X0005852Y0009682D01*
X0005866Y0009806D01*
X0005883Y0009930D01*
X0005905Y0010053D01*
X0005931Y0010175D01*
X0005960Y0010297D01*
X0005993Y0010417D01*
X0006031Y0010536D01*
X0006071Y0010655D01*
X0006116Y0010771D01*
X0006164Y0010886D01*
X0006216Y0011000D01*
X0006272Y0011112D01*
X0006331Y0011222D01*
X0006393Y0011330D01*
X0006459Y0011437D01*
X0006528Y0011541D01*
X0006601Y0011642D01*
X0006676Y0011742D01*
X0006755Y0011839D01*
X0006837Y0011933D01*
X0006922Y0012025D01*
X0007009Y0012114D01*
X0007100Y0012200D01*
X0007193Y0012283D01*
X0007289Y0012364D01*
X0007387Y0012441D01*
X0007487Y0012515D01*
X0007590Y0012586D01*
X0007695Y0012653D01*
X0007803Y0012718D01*
X0007912Y0012778D01*
X0008023Y0012836D01*
X0008136Y0012889D01*
X0008250Y0012939D01*
X0008366Y0012986D01*
X0008483Y0013028D01*
X0008602Y0013067D01*
X0008722Y0013103D01*
X0008843Y0013134D01*
X0008965Y0013162D01*
X0009087Y0013185D01*
X0009211Y0013205D01*
X0009335Y0013221D01*
X0009459Y0013233D01*
X0009584Y0013241D01*
X0009709Y0013245D01*
X0009833Y0013245D01*
X0009958Y0013241D01*
X0010083Y0013233D01*
X0010207Y0013221D01*
X0010331Y0013205D01*
X0010455Y0013185D01*
X0010577Y0013162D01*
X0010699Y0013134D01*
X0010820Y0013103D01*
X0010940Y0013067D01*
X0011059Y0013028D01*
X0011176Y0012986D01*
X0011292Y0012939D01*
X0011406Y0012889D01*
X0011519Y0012836D01*
X0011630Y0012778D01*
X0011740Y0012718D01*
X0011847Y0012653D01*
X0011952Y0012586D01*
X0012055Y0012515D01*
X0012155Y0012441D01*
X0012253Y0012364D01*
X0012349Y0012283D01*
X0012442Y0012200D01*
X0012533Y0012114D01*
X0012620Y0012025D01*
X0012705Y0011933D01*
X0012787Y0011839D01*
X0012866Y0011742D01*
X0012941Y0011642D01*
X0013014Y0011541D01*
X0013083Y0011437D01*
X0013149Y0011330D01*
X0013211Y0011222D01*
X0013270Y0011112D01*
X0013326Y0011000D01*
X0013378Y0010886D01*
X0013426Y0010771D01*
X0013471Y0010655D01*
X0013511Y0010536D01*
X0013549Y0010417D01*
X0013582Y0010297D01*
X0013611Y0010175D01*
X0013637Y0010053D01*
X0013659Y0009930D01*
X0013676Y0009806D01*
X0013690Y0009682D01*
X0013700Y0009558D01*
X0013706Y0009433D01*
X0013708Y0009308D01*
X0013706Y0009183D01*
X0013700Y0009058D01*
X0013690Y0008934D01*
X0013676Y0008810D01*
X0013659Y0008686D01*
X0013637Y0008563D01*
X0013611Y0008441D01*
X0013582Y0008319D01*
X0013549Y0008199D01*
X0013511Y0008080D01*
X0013471Y0007961D01*
X0013426Y0007845D01*
X0013378Y0007730D01*
X0013326Y0007616D01*
X0013270Y0007504D01*
X0013211Y0007394D01*
X0013149Y0007286D01*
X0013083Y0007179D01*
X0013014Y0007075D01*
X0012941Y0006974D01*
X0012866Y0006874D01*
X0012787Y0006777D01*
X0012705Y0006683D01*
X0012620Y0006591D01*
X0012533Y0006502D01*
X0012442Y0006416D01*
X0012349Y0006333D01*
X0012253Y0006252D01*
X0012155Y0006175D01*
X0012055Y0006101D01*
X0011952Y0006030D01*
X0011847Y0005963D01*
X0011739Y0005898D01*
X0011630Y0005838D01*
X0011519Y0005780D01*
X0011406Y0005727D01*
X0011292Y0005677D01*
X0011176Y0005630D01*
X0011059Y0005588D01*
X0010940Y0005549D01*
X0010820Y0005513D01*
X0010699Y0005482D01*
X0010577Y0005454D01*
X0010455Y0005431D01*
X0010331Y0005411D01*
X0010207Y0005395D01*
X0010083Y0005383D01*
X0009958Y0005375D01*
X0009833Y0005371D01*
X0009709Y0005371D01*
X0009584Y0005375D01*
X0009459Y0005383D01*
X0009335Y0005395D01*
X0009211Y0005411D01*
X0009087Y0005431D01*
X0008965Y0005454D01*
X0008843Y0005482D01*
X0008722Y0005513D01*
X0008602Y0005549D01*
X0008483Y0005588D01*
X0008366Y0005630D01*
X0008250Y0005677D01*
X0008136Y0005727D01*
X0008023Y0005780D01*
X0007912Y0005838D01*
X0007802Y0005898D01*
X0007695Y0005963D01*
X0007590Y0006030D01*
X0007487Y0006101D01*
X0007387Y0006175D01*
X0007289Y0006252D01*
X0007193Y0006333D01*
X0007100Y0006416D01*
X0007009Y0006502D01*
X0006922Y0006591D01*
X0006837Y0006683D01*
X0006755Y0006777D01*
X0006676Y0006874D01*
X0006601Y0006974D01*
X0006528Y0007075D01*
X0006459Y0007179D01*
X0006393Y0007286D01*
X0006331Y0007394D01*
X0006272Y0007504D01*
X0006216Y0007616D01*
X0006164Y0007730D01*
X0006116Y0007845D01*
X0006071Y0007961D01*
X0006031Y0008080D01*
X0005993Y0008199D01*
X0005960Y0008319D01*
X0005931Y0008441D01*
X0005905Y0008563D01*
X0005883Y0008686D01*
X0005866Y0008810D01*
X0005852Y0008934D01*
X0005842Y0009058D01*
X0005836Y0009183D01*
X0005834Y0009308D01*
X0126315Y0023005D02*
X0126317Y0023130D01*
X0126323Y0023255D01*
X0126333Y0023379D01*
X0126347Y0023503D01*
X0126364Y0023627D01*
X0126386Y0023750D01*
X0126412Y0023872D01*
X0126441Y0023994D01*
X0126474Y0024114D01*
X0126512Y0024233D01*
X0126552Y0024352D01*
X0126597Y0024468D01*
X0126645Y0024583D01*
X0126697Y0024697D01*
X0126753Y0024809D01*
X0126812Y0024919D01*
X0126874Y0025027D01*
X0126940Y0025134D01*
X0127009Y0025238D01*
X0127082Y0025339D01*
X0127157Y0025439D01*
X0127236Y0025536D01*
X0127318Y0025630D01*
X0127403Y0025722D01*
X0127490Y0025811D01*
X0127581Y0025897D01*
X0127674Y0025980D01*
X0127770Y0026061D01*
X0127868Y0026138D01*
X0127968Y0026212D01*
X0128071Y0026283D01*
X0128176Y0026350D01*
X0128284Y0026415D01*
X0128393Y0026475D01*
X0128504Y0026533D01*
X0128617Y0026586D01*
X0128731Y0026636D01*
X0128847Y0026683D01*
X0128964Y0026725D01*
X0129083Y0026764D01*
X0129203Y0026800D01*
X0129324Y0026831D01*
X0129446Y0026859D01*
X0129568Y0026882D01*
X0129692Y0026902D01*
X0129816Y0026918D01*
X0129940Y0026930D01*
X0130065Y0026938D01*
X0130190Y0026942D01*
X0130314Y0026942D01*
X0130439Y0026938D01*
X0130564Y0026930D01*
X0130688Y0026918D01*
X0130812Y0026902D01*
X0130936Y0026882D01*
X0131058Y0026859D01*
X0131180Y0026831D01*
X0131301Y0026800D01*
X0131421Y0026764D01*
X0131540Y0026725D01*
X0131657Y0026683D01*
X0131773Y0026636D01*
X0131887Y0026586D01*
X0132000Y0026533D01*
X0132111Y0026475D01*
X0132221Y0026415D01*
X0132328Y0026350D01*
X0132433Y0026283D01*
X0132536Y0026212D01*
X0132636Y0026138D01*
X0132734Y0026061D01*
X0132830Y0025980D01*
X0132923Y0025897D01*
X0133014Y0025811D01*
X0133101Y0025722D01*
X0133186Y0025630D01*
X0133268Y0025536D01*
X0133347Y0025439D01*
X0133422Y0025339D01*
X0133495Y0025238D01*
X0133564Y0025134D01*
X0133630Y0025027D01*
X0133692Y0024919D01*
X0133751Y0024809D01*
X0133807Y0024697D01*
X0133859Y0024583D01*
X0133907Y0024468D01*
X0133952Y0024352D01*
X0133992Y0024233D01*
X0134030Y0024114D01*
X0134063Y0023994D01*
X0134092Y0023872D01*
X0134118Y0023750D01*
X0134140Y0023627D01*
X0134157Y0023503D01*
X0134171Y0023379D01*
X0134181Y0023255D01*
X0134187Y0023130D01*
X0134189Y0023005D01*
X0134187Y0022880D01*
X0134181Y0022755D01*
X0134171Y0022631D01*
X0134157Y0022507D01*
X0134140Y0022383D01*
X0134118Y0022260D01*
X0134092Y0022138D01*
X0134063Y0022016D01*
X0134030Y0021896D01*
X0133992Y0021777D01*
X0133952Y0021658D01*
X0133907Y0021542D01*
X0133859Y0021427D01*
X0133807Y0021313D01*
X0133751Y0021201D01*
X0133692Y0021091D01*
X0133630Y0020983D01*
X0133564Y0020876D01*
X0133495Y0020772D01*
X0133422Y0020671D01*
X0133347Y0020571D01*
X0133268Y0020474D01*
X0133186Y0020380D01*
X0133101Y0020288D01*
X0133014Y0020199D01*
X0132923Y0020113D01*
X0132830Y0020030D01*
X0132734Y0019949D01*
X0132636Y0019872D01*
X0132536Y0019798D01*
X0132433Y0019727D01*
X0132328Y0019660D01*
X0132220Y0019595D01*
X0132111Y0019535D01*
X0132000Y0019477D01*
X0131887Y0019424D01*
X0131773Y0019374D01*
X0131657Y0019327D01*
X0131540Y0019285D01*
X0131421Y0019246D01*
X0131301Y0019210D01*
X0131180Y0019179D01*
X0131058Y0019151D01*
X0130936Y0019128D01*
X0130812Y0019108D01*
X0130688Y0019092D01*
X0130564Y0019080D01*
X0130439Y0019072D01*
X0130314Y0019068D01*
X0130190Y0019068D01*
X0130065Y0019072D01*
X0129940Y0019080D01*
X0129816Y0019092D01*
X0129692Y0019108D01*
X0129568Y0019128D01*
X0129446Y0019151D01*
X0129324Y0019179D01*
X0129203Y0019210D01*
X0129083Y0019246D01*
X0128964Y0019285D01*
X0128847Y0019327D01*
X0128731Y0019374D01*
X0128617Y0019424D01*
X0128504Y0019477D01*
X0128393Y0019535D01*
X0128283Y0019595D01*
X0128176Y0019660D01*
X0128071Y0019727D01*
X0127968Y0019798D01*
X0127868Y0019872D01*
X0127770Y0019949D01*
X0127674Y0020030D01*
X0127581Y0020113D01*
X0127490Y0020199D01*
X0127403Y0020288D01*
X0127318Y0020380D01*
X0127236Y0020474D01*
X0127157Y0020571D01*
X0127082Y0020671D01*
X0127009Y0020772D01*
X0126940Y0020876D01*
X0126874Y0020983D01*
X0126812Y0021091D01*
X0126753Y0021201D01*
X0126697Y0021313D01*
X0126645Y0021427D01*
X0126597Y0021542D01*
X0126552Y0021658D01*
X0126512Y0021777D01*
X0126474Y0021896D01*
X0126441Y0022016D01*
X0126412Y0022138D01*
X0126386Y0022260D01*
X0126364Y0022383D01*
X0126347Y0022507D01*
X0126333Y0022631D01*
X0126323Y0022755D01*
X0126317Y0022880D01*
X0126315Y0023005D01*
X0184319Y0008800D02*
X0184321Y0008925D01*
X0184327Y0009050D01*
X0184337Y0009174D01*
X0184351Y0009298D01*
X0184368Y0009422D01*
X0184390Y0009545D01*
X0184416Y0009667D01*
X0184445Y0009789D01*
X0184478Y0009909D01*
X0184516Y0010028D01*
X0184556Y0010147D01*
X0184601Y0010263D01*
X0184649Y0010378D01*
X0184701Y0010492D01*
X0184757Y0010604D01*
X0184816Y0010714D01*
X0184878Y0010822D01*
X0184944Y0010929D01*
X0185013Y0011033D01*
X0185086Y0011134D01*
X0185161Y0011234D01*
X0185240Y0011331D01*
X0185322Y0011425D01*
X0185407Y0011517D01*
X0185494Y0011606D01*
X0185585Y0011692D01*
X0185678Y0011775D01*
X0185774Y0011856D01*
X0185872Y0011933D01*
X0185972Y0012007D01*
X0186075Y0012078D01*
X0186180Y0012145D01*
X0186288Y0012210D01*
X0186397Y0012270D01*
X0186508Y0012328D01*
X0186621Y0012381D01*
X0186735Y0012431D01*
X0186851Y0012478D01*
X0186968Y0012520D01*
X0187087Y0012559D01*
X0187207Y0012595D01*
X0187328Y0012626D01*
X0187450Y0012654D01*
X0187572Y0012677D01*
X0187696Y0012697D01*
X0187820Y0012713D01*
X0187944Y0012725D01*
X0188069Y0012733D01*
X0188194Y0012737D01*
X0188318Y0012737D01*
X0188443Y0012733D01*
X0188568Y0012725D01*
X0188692Y0012713D01*
X0188816Y0012697D01*
X0188940Y0012677D01*
X0189062Y0012654D01*
X0189184Y0012626D01*
X0189305Y0012595D01*
X0189425Y0012559D01*
X0189544Y0012520D01*
X0189661Y0012478D01*
X0189777Y0012431D01*
X0189891Y0012381D01*
X0190004Y0012328D01*
X0190115Y0012270D01*
X0190225Y0012210D01*
X0190332Y0012145D01*
X0190437Y0012078D01*
X0190540Y0012007D01*
X0190640Y0011933D01*
X0190738Y0011856D01*
X0190834Y0011775D01*
X0190927Y0011692D01*
X0191018Y0011606D01*
X0191105Y0011517D01*
X0191190Y0011425D01*
X0191272Y0011331D01*
X0191351Y0011234D01*
X0191426Y0011134D01*
X0191499Y0011033D01*
X0191568Y0010929D01*
X0191634Y0010822D01*
X0191696Y0010714D01*
X0191755Y0010604D01*
X0191811Y0010492D01*
X0191863Y0010378D01*
X0191911Y0010263D01*
X0191956Y0010147D01*
X0191996Y0010028D01*
X0192034Y0009909D01*
X0192067Y0009789D01*
X0192096Y0009667D01*
X0192122Y0009545D01*
X0192144Y0009422D01*
X0192161Y0009298D01*
X0192175Y0009174D01*
X0192185Y0009050D01*
X0192191Y0008925D01*
X0192193Y0008800D01*
X0192191Y0008675D01*
X0192185Y0008550D01*
X0192175Y0008426D01*
X0192161Y0008302D01*
X0192144Y0008178D01*
X0192122Y0008055D01*
X0192096Y0007933D01*
X0192067Y0007811D01*
X0192034Y0007691D01*
X0191996Y0007572D01*
X0191956Y0007453D01*
X0191911Y0007337D01*
X0191863Y0007222D01*
X0191811Y0007108D01*
X0191755Y0006996D01*
X0191696Y0006886D01*
X0191634Y0006778D01*
X0191568Y0006671D01*
X0191499Y0006567D01*
X0191426Y0006466D01*
X0191351Y0006366D01*
X0191272Y0006269D01*
X0191190Y0006175D01*
X0191105Y0006083D01*
X0191018Y0005994D01*
X0190927Y0005908D01*
X0190834Y0005825D01*
X0190738Y0005744D01*
X0190640Y0005667D01*
X0190540Y0005593D01*
X0190437Y0005522D01*
X0190332Y0005455D01*
X0190224Y0005390D01*
X0190115Y0005330D01*
X0190004Y0005272D01*
X0189891Y0005219D01*
X0189777Y0005169D01*
X0189661Y0005122D01*
X0189544Y0005080D01*
X0189425Y0005041D01*
X0189305Y0005005D01*
X0189184Y0004974D01*
X0189062Y0004946D01*
X0188940Y0004923D01*
X0188816Y0004903D01*
X0188692Y0004887D01*
X0188568Y0004875D01*
X0188443Y0004867D01*
X0188318Y0004863D01*
X0188194Y0004863D01*
X0188069Y0004867D01*
X0187944Y0004875D01*
X0187820Y0004887D01*
X0187696Y0004903D01*
X0187572Y0004923D01*
X0187450Y0004946D01*
X0187328Y0004974D01*
X0187207Y0005005D01*
X0187087Y0005041D01*
X0186968Y0005080D01*
X0186851Y0005122D01*
X0186735Y0005169D01*
X0186621Y0005219D01*
X0186508Y0005272D01*
X0186397Y0005330D01*
X0186287Y0005390D01*
X0186180Y0005455D01*
X0186075Y0005522D01*
X0185972Y0005593D01*
X0185872Y0005667D01*
X0185774Y0005744D01*
X0185678Y0005825D01*
X0185585Y0005908D01*
X0185494Y0005994D01*
X0185407Y0006083D01*
X0185322Y0006175D01*
X0185240Y0006269D01*
X0185161Y0006366D01*
X0185086Y0006466D01*
X0185013Y0006567D01*
X0184944Y0006671D01*
X0184878Y0006778D01*
X0184816Y0006886D01*
X0184757Y0006996D01*
X0184701Y0007108D01*
X0184649Y0007222D01*
X0184601Y0007337D01*
X0184556Y0007453D01*
X0184516Y0007572D01*
X0184478Y0007691D01*
X0184445Y0007811D01*
X0184416Y0007933D01*
X0184390Y0008055D01*
X0184368Y0008178D01*
X0184351Y0008302D01*
X0184337Y0008426D01*
X0184327Y0008550D01*
X0184321Y0008675D01*
X0184319Y0008800D01*
X0184834Y0188308D02*
X0184836Y0188433D01*
X0184842Y0188558D01*
X0184852Y0188682D01*
X0184866Y0188806D01*
X0184883Y0188930D01*
X0184905Y0189053D01*
X0184931Y0189175D01*
X0184960Y0189297D01*
X0184993Y0189417D01*
X0185031Y0189536D01*
X0185071Y0189655D01*
X0185116Y0189771D01*
X0185164Y0189886D01*
X0185216Y0190000D01*
X0185272Y0190112D01*
X0185331Y0190222D01*
X0185393Y0190330D01*
X0185459Y0190437D01*
X0185528Y0190541D01*
X0185601Y0190642D01*
X0185676Y0190742D01*
X0185755Y0190839D01*
X0185837Y0190933D01*
X0185922Y0191025D01*
X0186009Y0191114D01*
X0186100Y0191200D01*
X0186193Y0191283D01*
X0186289Y0191364D01*
X0186387Y0191441D01*
X0186487Y0191515D01*
X0186590Y0191586D01*
X0186695Y0191653D01*
X0186803Y0191718D01*
X0186912Y0191778D01*
X0187023Y0191836D01*
X0187136Y0191889D01*
X0187250Y0191939D01*
X0187366Y0191986D01*
X0187483Y0192028D01*
X0187602Y0192067D01*
X0187722Y0192103D01*
X0187843Y0192134D01*
X0187965Y0192162D01*
X0188087Y0192185D01*
X0188211Y0192205D01*
X0188335Y0192221D01*
X0188459Y0192233D01*
X0188584Y0192241D01*
X0188709Y0192245D01*
X0188833Y0192245D01*
X0188958Y0192241D01*
X0189083Y0192233D01*
X0189207Y0192221D01*
X0189331Y0192205D01*
X0189455Y0192185D01*
X0189577Y0192162D01*
X0189699Y0192134D01*
X0189820Y0192103D01*
X0189940Y0192067D01*
X0190059Y0192028D01*
X0190176Y0191986D01*
X0190292Y0191939D01*
X0190406Y0191889D01*
X0190519Y0191836D01*
X0190630Y0191778D01*
X0190740Y0191718D01*
X0190847Y0191653D01*
X0190952Y0191586D01*
X0191055Y0191515D01*
X0191155Y0191441D01*
X0191253Y0191364D01*
X0191349Y0191283D01*
X0191442Y0191200D01*
X0191533Y0191114D01*
X0191620Y0191025D01*
X0191705Y0190933D01*
X0191787Y0190839D01*
X0191866Y0190742D01*
X0191941Y0190642D01*
X0192014Y0190541D01*
X0192083Y0190437D01*
X0192149Y0190330D01*
X0192211Y0190222D01*
X0192270Y0190112D01*
X0192326Y0190000D01*
X0192378Y0189886D01*
X0192426Y0189771D01*
X0192471Y0189655D01*
X0192511Y0189536D01*
X0192549Y0189417D01*
X0192582Y0189297D01*
X0192611Y0189175D01*
X0192637Y0189053D01*
X0192659Y0188930D01*
X0192676Y0188806D01*
X0192690Y0188682D01*
X0192700Y0188558D01*
X0192706Y0188433D01*
X0192708Y0188308D01*
X0192706Y0188183D01*
X0192700Y0188058D01*
X0192690Y0187934D01*
X0192676Y0187810D01*
X0192659Y0187686D01*
X0192637Y0187563D01*
X0192611Y0187441D01*
X0192582Y0187319D01*
X0192549Y0187199D01*
X0192511Y0187080D01*
X0192471Y0186961D01*
X0192426Y0186845D01*
X0192378Y0186730D01*
X0192326Y0186616D01*
X0192270Y0186504D01*
X0192211Y0186394D01*
X0192149Y0186286D01*
X0192083Y0186179D01*
X0192014Y0186075D01*
X0191941Y0185974D01*
X0191866Y0185874D01*
X0191787Y0185777D01*
X0191705Y0185683D01*
X0191620Y0185591D01*
X0191533Y0185502D01*
X0191442Y0185416D01*
X0191349Y0185333D01*
X0191253Y0185252D01*
X0191155Y0185175D01*
X0191055Y0185101D01*
X0190952Y0185030D01*
X0190847Y0184963D01*
X0190739Y0184898D01*
X0190630Y0184838D01*
X0190519Y0184780D01*
X0190406Y0184727D01*
X0190292Y0184677D01*
X0190176Y0184630D01*
X0190059Y0184588D01*
X0189940Y0184549D01*
X0189820Y0184513D01*
X0189699Y0184482D01*
X0189577Y0184454D01*
X0189455Y0184431D01*
X0189331Y0184411D01*
X0189207Y0184395D01*
X0189083Y0184383D01*
X0188958Y0184375D01*
X0188833Y0184371D01*
X0188709Y0184371D01*
X0188584Y0184375D01*
X0188459Y0184383D01*
X0188335Y0184395D01*
X0188211Y0184411D01*
X0188087Y0184431D01*
X0187965Y0184454D01*
X0187843Y0184482D01*
X0187722Y0184513D01*
X0187602Y0184549D01*
X0187483Y0184588D01*
X0187366Y0184630D01*
X0187250Y0184677D01*
X0187136Y0184727D01*
X0187023Y0184780D01*
X0186912Y0184838D01*
X0186802Y0184898D01*
X0186695Y0184963D01*
X0186590Y0185030D01*
X0186487Y0185101D01*
X0186387Y0185175D01*
X0186289Y0185252D01*
X0186193Y0185333D01*
X0186100Y0185416D01*
X0186009Y0185502D01*
X0185922Y0185591D01*
X0185837Y0185683D01*
X0185755Y0185777D01*
X0185676Y0185874D01*
X0185601Y0185974D01*
X0185528Y0186075D01*
X0185459Y0186179D01*
X0185393Y0186286D01*
X0185331Y0186394D01*
X0185272Y0186504D01*
X0185216Y0186616D01*
X0185164Y0186730D01*
X0185116Y0186845D01*
X0185071Y0186961D01*
X0185031Y0187080D01*
X0184993Y0187199D01*
X0184960Y0187319D01*
X0184931Y0187441D01*
X0184905Y0187563D01*
X0184883Y0187686D01*
X0184866Y0187810D01*
X0184852Y0187934D01*
X0184842Y0188058D01*
X0184836Y0188183D01*
X0184834Y0188308D01*
X0006334Y0188308D02*
X0006336Y0188433D01*
X0006342Y0188558D01*
X0006352Y0188682D01*
X0006366Y0188806D01*
X0006383Y0188930D01*
X0006405Y0189053D01*
X0006431Y0189175D01*
X0006460Y0189297D01*
X0006493Y0189417D01*
X0006531Y0189536D01*
X0006571Y0189655D01*
X0006616Y0189771D01*
X0006664Y0189886D01*
X0006716Y0190000D01*
X0006772Y0190112D01*
X0006831Y0190222D01*
X0006893Y0190330D01*
X0006959Y0190437D01*
X0007028Y0190541D01*
X0007101Y0190642D01*
X0007176Y0190742D01*
X0007255Y0190839D01*
X0007337Y0190933D01*
X0007422Y0191025D01*
X0007509Y0191114D01*
X0007600Y0191200D01*
X0007693Y0191283D01*
X0007789Y0191364D01*
X0007887Y0191441D01*
X0007987Y0191515D01*
X0008090Y0191586D01*
X0008195Y0191653D01*
X0008303Y0191718D01*
X0008412Y0191778D01*
X0008523Y0191836D01*
X0008636Y0191889D01*
X0008750Y0191939D01*
X0008866Y0191986D01*
X0008983Y0192028D01*
X0009102Y0192067D01*
X0009222Y0192103D01*
X0009343Y0192134D01*
X0009465Y0192162D01*
X0009587Y0192185D01*
X0009711Y0192205D01*
X0009835Y0192221D01*
X0009959Y0192233D01*
X0010084Y0192241D01*
X0010209Y0192245D01*
X0010333Y0192245D01*
X0010458Y0192241D01*
X0010583Y0192233D01*
X0010707Y0192221D01*
X0010831Y0192205D01*
X0010955Y0192185D01*
X0011077Y0192162D01*
X0011199Y0192134D01*
X0011320Y0192103D01*
X0011440Y0192067D01*
X0011559Y0192028D01*
X0011676Y0191986D01*
X0011792Y0191939D01*
X0011906Y0191889D01*
X0012019Y0191836D01*
X0012130Y0191778D01*
X0012240Y0191718D01*
X0012347Y0191653D01*
X0012452Y0191586D01*
X0012555Y0191515D01*
X0012655Y0191441D01*
X0012753Y0191364D01*
X0012849Y0191283D01*
X0012942Y0191200D01*
X0013033Y0191114D01*
X0013120Y0191025D01*
X0013205Y0190933D01*
X0013287Y0190839D01*
X0013366Y0190742D01*
X0013441Y0190642D01*
X0013514Y0190541D01*
X0013583Y0190437D01*
X0013649Y0190330D01*
X0013711Y0190222D01*
X0013770Y0190112D01*
X0013826Y0190000D01*
X0013878Y0189886D01*
X0013926Y0189771D01*
X0013971Y0189655D01*
X0014011Y0189536D01*
X0014049Y0189417D01*
X0014082Y0189297D01*
X0014111Y0189175D01*
X0014137Y0189053D01*
X0014159Y0188930D01*
X0014176Y0188806D01*
X0014190Y0188682D01*
X0014200Y0188558D01*
X0014206Y0188433D01*
X0014208Y0188308D01*
X0014206Y0188183D01*
X0014200Y0188058D01*
X0014190Y0187934D01*
X0014176Y0187810D01*
X0014159Y0187686D01*
X0014137Y0187563D01*
X0014111Y0187441D01*
X0014082Y0187319D01*
X0014049Y0187199D01*
X0014011Y0187080D01*
X0013971Y0186961D01*
X0013926Y0186845D01*
X0013878Y0186730D01*
X0013826Y0186616D01*
X0013770Y0186504D01*
X0013711Y0186394D01*
X0013649Y0186286D01*
X0013583Y0186179D01*
X0013514Y0186075D01*
X0013441Y0185974D01*
X0013366Y0185874D01*
X0013287Y0185777D01*
X0013205Y0185683D01*
X0013120Y0185591D01*
X0013033Y0185502D01*
X0012942Y0185416D01*
X0012849Y0185333D01*
X0012753Y0185252D01*
X0012655Y0185175D01*
X0012555Y0185101D01*
X0012452Y0185030D01*
X0012347Y0184963D01*
X0012239Y0184898D01*
X0012130Y0184838D01*
X0012019Y0184780D01*
X0011906Y0184727D01*
X0011792Y0184677D01*
X0011676Y0184630D01*
X0011559Y0184588D01*
X0011440Y0184549D01*
X0011320Y0184513D01*
X0011199Y0184482D01*
X0011077Y0184454D01*
X0010955Y0184431D01*
X0010831Y0184411D01*
X0010707Y0184395D01*
X0010583Y0184383D01*
X0010458Y0184375D01*
X0010333Y0184371D01*
X0010209Y0184371D01*
X0010084Y0184375D01*
X0009959Y0184383D01*
X0009835Y0184395D01*
X0009711Y0184411D01*
X0009587Y0184431D01*
X0009465Y0184454D01*
X0009343Y0184482D01*
X0009222Y0184513D01*
X0009102Y0184549D01*
X0008983Y0184588D01*
X0008866Y0184630D01*
X0008750Y0184677D01*
X0008636Y0184727D01*
X0008523Y0184780D01*
X0008412Y0184838D01*
X0008302Y0184898D01*
X0008195Y0184963D01*
X0008090Y0185030D01*
X0007987Y0185101D01*
X0007887Y0185175D01*
X0007789Y0185252D01*
X0007693Y0185333D01*
X0007600Y0185416D01*
X0007509Y0185502D01*
X0007422Y0185591D01*
X0007337Y0185683D01*
X0007255Y0185777D01*
X0007176Y0185874D01*
X0007101Y0185974D01*
X0007028Y0186075D01*
X0006959Y0186179D01*
X0006893Y0186286D01*
X0006831Y0186394D01*
X0006772Y0186504D01*
X0006716Y0186616D01*
X0006664Y0186730D01*
X0006616Y0186845D01*
X0006571Y0186961D01*
X0006531Y0187080D01*
X0006493Y0187199D01*
X0006460Y0187319D01*
X0006431Y0187441D01*
X0006405Y0187563D01*
X0006383Y0187686D01*
X0006366Y0187810D01*
X0006352Y0187934D01*
X0006342Y0188058D01*
X0006336Y0188183D01*
X0006334Y0188308D01*
D11*
X0002271Y0001808D02*
X0197122Y0001808D01*
X0197122Y0196658D01*
X0002271Y0196658D01*
X0002271Y0001808D01*
X0031267Y0004408D02*
X0031267Y0066769D01*
X0004871Y0067224D01*
X0004871Y0186353D01*
X0005408Y0185058D01*
X0007022Y0183444D01*
X0009130Y0182571D01*
X0011412Y0182571D01*
X0013521Y0183444D01*
X0015135Y0185058D01*
X0016008Y0187167D01*
X0016008Y0189449D01*
X0015135Y0191558D01*
X0013521Y0193171D01*
X0011412Y0194045D01*
X0009130Y0194045D01*
X0007022Y0193171D01*
X0005408Y0191558D01*
X0004871Y0190263D01*
X0004871Y0194058D01*
X0194522Y0194058D01*
X0194522Y0004408D01*
X0191977Y0004408D01*
X0193119Y0005550D01*
X0193993Y0007659D01*
X0193993Y0009941D01*
X0193119Y0012050D01*
X0191505Y0013664D01*
X0189397Y0014537D01*
X0187114Y0014537D01*
X0185006Y0013664D01*
X0183392Y0012050D01*
X0182519Y0009941D01*
X0182519Y0007659D01*
X0183392Y0005550D01*
X0184534Y0004408D01*
X0166632Y0004408D01*
X0166632Y0011811D01*
X0165578Y0012866D01*
X0157587Y0012866D01*
X0156532Y0011811D01*
X0156532Y0008844D01*
X0156508Y0008998D01*
X0156262Y0009754D01*
X0155901Y0010463D01*
X0155434Y0011106D01*
X0154872Y0011668D01*
X0154229Y0012135D01*
X0153521Y0012496D01*
X0152765Y0012741D01*
X0151980Y0012866D01*
X0151657Y0012866D01*
X0151657Y0007891D01*
X0151507Y0007891D01*
X0151507Y0012866D01*
X0151185Y0012866D01*
X0150400Y0012741D01*
X0149644Y0012496D01*
X0148935Y0012135D01*
X0148292Y0011668D01*
X0147730Y0011106D01*
X0147263Y0010463D01*
X0146902Y0009754D01*
X0146657Y0008998D01*
X0146629Y0008827D01*
X0145863Y0010676D01*
X0144443Y0012097D01*
X0142587Y0012866D01*
X0140578Y0012866D01*
X0138722Y0012097D01*
X0137301Y0010676D01*
X0136532Y0008820D01*
X0136532Y0006811D01*
X0137301Y0004955D01*
X0137848Y0004408D01*
X0031267Y0004408D01*
X0031267Y0005005D02*
X0137280Y0005005D01*
X0136618Y0006603D02*
X0114893Y0006603D01*
X0114917Y0006645D02*
X0115040Y0007102D01*
X0115040Y0010124D01*
X0110456Y0010124D01*
X0110456Y0010492D01*
X0115040Y0010492D01*
X0115040Y0013513D01*
X0114917Y0013971D01*
X0114680Y0014382D01*
X0114345Y0014717D01*
X0113935Y0014954D01*
X0113477Y0015076D01*
X0110456Y0015076D01*
X0110456Y0010492D01*
X0110087Y0010492D01*
X0110087Y0010124D01*
X0105503Y0010124D01*
X0105503Y0007102D01*
X0105625Y0006645D01*
X0105862Y0006234D01*
X0106198Y0005899D01*
X0106608Y0005662D01*
X0107066Y0005539D01*
X0110087Y0005539D01*
X0110087Y0010124D01*
X0110456Y0010124D01*
X0110456Y0005539D01*
X0113477Y0005539D01*
X0113935Y0005662D01*
X0114345Y0005899D01*
X0114680Y0006234D01*
X0114917Y0006645D01*
X0115040Y0008202D02*
X0136532Y0008202D01*
X0136938Y0009800D02*
X0115040Y0009800D01*
X0115040Y0011399D02*
X0138024Y0011399D01*
X0145141Y0011399D02*
X0148024Y0011399D01*
X0146926Y0009800D02*
X0146226Y0009800D01*
X0151507Y0009800D02*
X0151657Y0009800D01*
X0151657Y0008202D02*
X0151507Y0008202D01*
X0151507Y0011399D02*
X0151657Y0011399D01*
X0155141Y0011399D02*
X0156532Y0011399D01*
X0156532Y0009800D02*
X0156239Y0009800D01*
X0159596Y0017793D02*
X0132661Y0017793D01*
X0133501Y0018141D02*
X0131393Y0017268D01*
X0129110Y0017268D01*
X0127002Y0018141D01*
X0125388Y0019755D01*
X0124515Y0021864D01*
X0124515Y0024146D01*
X0125388Y0026254D01*
X0127002Y0027868D01*
X0129110Y0028742D01*
X0131393Y0028742D01*
X0133501Y0027868D01*
X0135115Y0026254D01*
X0135989Y0024146D01*
X0135989Y0021864D01*
X0135115Y0019755D01*
X0133501Y0018141D01*
X0134752Y0019391D02*
X0157387Y0019391D01*
X0156967Y0019811D02*
X0158554Y0018225D01*
X0160626Y0017366D01*
X0162869Y0017366D01*
X0164942Y0018225D01*
X0166528Y0019811D01*
X0167386Y0021883D01*
X0167386Y0024126D01*
X0166528Y0026199D01*
X0164942Y0027785D01*
X0162869Y0028643D01*
X0160626Y0028643D01*
X0158554Y0027785D01*
X0158227Y0027458D01*
X0156716Y0028970D01*
X0155778Y0029358D01*
X0141827Y0029358D01*
X0138177Y0033008D01*
X0142267Y0033008D01*
X0143321Y0034062D01*
X0143321Y0040553D01*
X0142267Y0041608D01*
X0142200Y0041608D01*
X0142117Y0041808D01*
X0142200Y0042008D01*
X0142267Y0042008D01*
X0143321Y0043062D01*
X0143321Y0043792D01*
X0143645Y0043658D01*
X0144898Y0043658D01*
X0146056Y0044137D01*
X0146942Y0045024D01*
X0147421Y0046181D01*
X0147421Y0047434D01*
X0146942Y0048592D01*
X0146056Y0049478D01*
X0144898Y0049958D01*
X0143645Y0049958D01*
X0143130Y0049745D01*
X0142267Y0050608D01*
X0136821Y0050608D01*
X0136821Y0074315D01*
X0136433Y0075252D01*
X0136427Y0075258D01*
X0136517Y0075258D01*
X0137571Y0076312D01*
X0137571Y0082188D01*
X0137645Y0082158D01*
X0138898Y0082158D01*
X0140056Y0082637D01*
X0140942Y0083524D01*
X0141421Y0084681D01*
X0141421Y0085934D01*
X0140942Y0087092D01*
X0140056Y0087978D01*
X0138898Y0088458D01*
X0137645Y0088458D01*
X0136776Y0088098D01*
X0136517Y0088358D01*
X0130026Y0088358D01*
X0128971Y0087303D01*
X0128971Y0086785D01*
X0123871Y0091885D01*
X0123871Y0102825D01*
X0123475Y0103781D01*
X0120975Y0106281D01*
X0120244Y0107012D01*
X0119913Y0107149D01*
X0120594Y0107830D01*
X0121260Y0109438D01*
X0121260Y0111178D01*
X0120594Y0112786D01*
X0119364Y0114017D01*
X0117756Y0114683D01*
X0116015Y0114683D01*
X0114407Y0114017D01*
X0113177Y0112786D01*
X0112511Y0111178D01*
X0112511Y0109745D01*
X0104975Y0117281D01*
X0104244Y0118012D01*
X0103288Y0118408D01*
X0085254Y0118408D01*
X0084298Y0118012D01*
X0081998Y0115712D01*
X0081766Y0115808D01*
X0079777Y0115808D01*
X0077939Y0115047D01*
X0076532Y0113640D01*
X0075771Y0111802D01*
X0075771Y0109813D01*
X0076532Y0107976D01*
X0077939Y0106569D01*
X0079777Y0105808D01*
X0081766Y0105808D01*
X0079777Y0105808D01*
X0077939Y0105047D01*
X0076532Y0103640D01*
X0075771Y0101802D01*
X0075771Y0099813D01*
X0076532Y0097976D01*
X0077939Y0096569D01*
X0079777Y0095808D01*
X0081766Y0095808D01*
X0083604Y0096569D01*
X0084180Y0097146D01*
X0086471Y0094855D01*
X0087109Y0094217D01*
X0086532Y0093640D01*
X0085771Y0091802D01*
X0085771Y0089813D01*
X0086532Y0087976D01*
X0086619Y0087889D01*
X0085559Y0087889D01*
X0084474Y0087440D01*
X0084585Y0087551D01*
X0085048Y0088187D01*
X0085405Y0088889D01*
X0085648Y0089637D01*
X0085771Y0090414D01*
X0085771Y0090722D01*
X0080857Y0090722D01*
X0080857Y0085808D01*
X0081165Y0085808D01*
X0081942Y0085931D01*
X0082691Y0086174D01*
X0083392Y0086531D01*
X0083533Y0086634D01*
X0083235Y0086336D01*
X0082690Y0085020D01*
X0082690Y0084404D01*
X0072907Y0074620D01*
X0072756Y0074683D01*
X0071015Y0074683D01*
X0069407Y0074017D01*
X0068799Y0073408D01*
X0063848Y0073408D01*
X0060244Y0077012D01*
X0059913Y0077149D01*
X0060594Y0077830D01*
X0061260Y0079438D01*
X0061260Y0081178D01*
X0060594Y0082786D01*
X0059364Y0084017D01*
X0057756Y0084683D01*
X0056015Y0084683D01*
X0054407Y0084017D01*
X0053177Y0082786D01*
X0052511Y0081178D01*
X0052511Y0079438D01*
X0053177Y0077830D01*
X0053791Y0077216D01*
X0053298Y0077012D01*
X0052567Y0076281D01*
X0048694Y0072408D01*
X0041457Y0072408D01*
X0041457Y0078628D01*
X0040403Y0079683D01*
X0033762Y0079683D01*
X0032707Y0078628D01*
X0032707Y0077996D01*
X0031686Y0079017D01*
X0030078Y0079683D01*
X0028338Y0079683D01*
X0026730Y0079017D01*
X0025499Y0077786D01*
X0025271Y0077235D01*
X0025043Y0077786D01*
X0023812Y0079017D01*
X0022204Y0079683D01*
X0020464Y0079683D01*
X0018856Y0079017D01*
X0017625Y0077786D01*
X0017393Y0077225D01*
X0017202Y0077601D01*
X0016797Y0078158D01*
X0016310Y0078645D01*
X0015753Y0079050D01*
X0015140Y0079362D01*
X0014485Y0079575D01*
X0013805Y0079683D01*
X0013460Y0079683D01*
X0013116Y0079683D01*
X0012436Y0079575D01*
X0011781Y0079362D01*
X0011167Y0079050D01*
X0010610Y0078645D01*
X0010123Y0078158D01*
X0009719Y0077601D01*
X0009406Y0076987D01*
X0009193Y0076332D01*
X0009085Y0075652D01*
X0009085Y0075308D01*
X0013460Y0075308D01*
X0013460Y0075308D01*
X0013460Y0079683D01*
X0013460Y0075308D01*
X0013460Y0075308D01*
X0009085Y0075308D01*
X0009085Y0074964D01*
X0009193Y0074283D01*
X0009406Y0073629D01*
X0009719Y0073015D01*
X0010123Y0072458D01*
X0010610Y0071971D01*
X0011167Y0071566D01*
X0011781Y0071254D01*
X0012436Y0071041D01*
X0013116Y0070933D01*
X0013460Y0070933D01*
X0013460Y0075308D01*
X0013460Y0075308D01*
X0013460Y0070933D01*
X0013805Y0070933D01*
X0014485Y0071041D01*
X0015140Y0071254D01*
X0015753Y0071566D01*
X0016310Y0071971D01*
X0016797Y0072458D01*
X0017202Y0073015D01*
X0017393Y0073390D01*
X0017625Y0072830D01*
X0018856Y0071599D01*
X0020464Y0070933D01*
X0022204Y0070933D01*
X0023812Y0071599D01*
X0025043Y0072830D01*
X0025271Y0073381D01*
X0025499Y0072830D01*
X0026730Y0071599D01*
X0028338Y0070933D01*
X0029969Y0070933D01*
X0032567Y0068335D01*
X0033298Y0067604D01*
X0034254Y0067208D01*
X0050288Y0067208D01*
X0051244Y0067604D01*
X0052677Y0069036D01*
X0053177Y0067830D01*
X0054407Y0066599D01*
X0056015Y0065933D01*
X0056893Y0065933D01*
X0078766Y0044060D01*
X0078243Y0043844D01*
X0077235Y0042836D01*
X0076690Y0041520D01*
X0076690Y0040479D01*
X0073971Y0037761D01*
X0073971Y0036146D01*
X0073243Y0035844D01*
X0072235Y0034836D01*
X0071690Y0033520D01*
X0071690Y0032096D01*
X0072235Y0030779D01*
X0073243Y0029772D01*
X0074559Y0029227D01*
X0075984Y0029227D01*
X0077300Y0029772D01*
X0078307Y0030779D01*
X0078852Y0032096D01*
X0078852Y0033520D01*
X0078571Y0034199D01*
X0078571Y0035855D01*
X0079943Y0037227D01*
X0080984Y0037227D01*
X0082300Y0037772D01*
X0082471Y0037943D01*
X0082471Y0026355D01*
X0084471Y0024355D01*
X0085819Y0023008D01*
X0096224Y0023008D01*
X0097021Y0023805D01*
X0097023Y0023803D01*
X0096229Y0023009D01*
X0095503Y0021256D01*
X0095503Y0019359D01*
X0096229Y0017607D01*
X0097570Y0016265D01*
X0099323Y0015539D01*
X0101220Y0015539D01*
X0102972Y0016265D01*
X0104314Y0017607D01*
X0105040Y0019359D01*
X0105040Y0021256D01*
X0104314Y0023009D01*
X0103519Y0023803D01*
X0103521Y0023805D01*
X0105669Y0021658D01*
X0105503Y0021256D01*
X0105503Y0019359D01*
X0106229Y0017607D01*
X0107570Y0016265D01*
X0109323Y0015539D01*
X0111220Y0015539D01*
X0112972Y0016265D01*
X0114314Y0017607D01*
X0115040Y0019359D01*
X0115040Y0021256D01*
X0114314Y0023009D01*
X0112972Y0024350D01*
X0111220Y0025076D01*
X0109323Y0025076D01*
X0108922Y0024910D01*
X0104874Y0028958D01*
X0105040Y0029359D01*
X0105040Y0031256D01*
X0104314Y0033009D01*
X0102972Y0034350D01*
X0101220Y0035076D01*
X0099323Y0035076D01*
X0097570Y0034350D01*
X0096229Y0033009D01*
X0095503Y0031256D01*
X0095503Y0029359D01*
X0095669Y0028958D01*
X0094471Y0027761D01*
X0094319Y0027608D01*
X0087724Y0027608D01*
X0087071Y0028261D01*
X0087071Y0035929D01*
X0087559Y0035727D01*
X0088984Y0035727D01*
X0090300Y0036272D01*
X0091307Y0037279D01*
X0091852Y0038596D01*
X0091852Y0039636D01*
X0096943Y0044727D01*
X0097984Y0044727D01*
X0099300Y0045272D01*
X0100307Y0046279D01*
X0100852Y0047596D01*
X0100852Y0049020D01*
X0100307Y0050336D01*
X0099300Y0051344D01*
X0097984Y0051889D01*
X0096559Y0051889D01*
X0095243Y0051344D01*
X0094235Y0050336D01*
X0093690Y0049020D01*
X0093690Y0047979D01*
X0088600Y0042889D01*
X0087559Y0042889D01*
X0086770Y0042562D01*
X0085724Y0043608D01*
X0060860Y0068472D01*
X0061027Y0068875D01*
X0061298Y0068604D01*
X0062254Y0068208D01*
X0068020Y0068208D01*
X0068177Y0067830D01*
X0069407Y0066599D01*
X0071015Y0065933D01*
X0072756Y0065933D01*
X0074364Y0066599D01*
X0075594Y0067830D01*
X0076260Y0069438D01*
X0076260Y0070620D01*
X0078000Y0072360D01*
X0077511Y0071178D01*
X0077511Y0069438D01*
X0078177Y0067830D01*
X0079407Y0066599D01*
X0081015Y0065933D01*
X0082756Y0065933D01*
X0084364Y0066599D01*
X0085594Y0067830D01*
X0086260Y0069438D01*
X0086260Y0071178D01*
X0085594Y0072786D01*
X0084364Y0074017D01*
X0082756Y0074683D01*
X0081015Y0074683D01*
X0079834Y0074193D01*
X0086367Y0080727D01*
X0086984Y0080727D01*
X0088300Y0081272D01*
X0089307Y0082279D01*
X0089852Y0083596D01*
X0089852Y0085020D01*
X0089474Y0085933D01*
X0089777Y0085808D01*
X0091766Y0085808D01*
X0093604Y0086569D01*
X0095010Y0087976D01*
X0095696Y0089631D01*
X0098971Y0086355D01*
X0100319Y0085008D01*
X0108819Y0085008D01*
X0112551Y0081275D01*
X0112511Y0081178D01*
X0112511Y0079800D01*
X0109471Y0076761D01*
X0109471Y0073261D01*
X0107100Y0070889D01*
X0106260Y0070889D01*
X0106260Y0071178D01*
X0105594Y0072786D01*
X0104364Y0074017D01*
X0102756Y0074683D01*
X0101015Y0074683D01*
X0099407Y0074017D01*
X0098177Y0072786D01*
X0097511Y0071178D01*
X0097511Y0069438D01*
X0098177Y0067830D01*
X0099407Y0066599D01*
X0101015Y0065933D01*
X0102756Y0065933D01*
X0103361Y0066184D01*
X0103735Y0065279D01*
X0104743Y0064272D01*
X0106059Y0063727D01*
X0107484Y0063727D01*
X0108800Y0064272D01*
X0109807Y0065279D01*
X0110352Y0066596D01*
X0110352Y0067636D01*
X0112511Y0069795D01*
X0112511Y0069438D01*
X0113177Y0067830D01*
X0114407Y0066599D01*
X0116015Y0065933D01*
X0117756Y0065933D01*
X0119364Y0066599D01*
X0120594Y0067830D01*
X0121260Y0069438D01*
X0121260Y0071178D01*
X0120594Y0072786D01*
X0119364Y0074017D01*
X0117756Y0074683D01*
X0116015Y0074683D01*
X0114407Y0074017D01*
X0114071Y0073681D01*
X0114071Y0074855D01*
X0115403Y0076187D01*
X0116015Y0075933D01*
X0117756Y0075933D01*
X0119364Y0076599D01*
X0120594Y0077830D01*
X0121260Y0079438D01*
X0121260Y0081178D01*
X0120594Y0082786D01*
X0119364Y0084017D01*
X0117756Y0084683D01*
X0116015Y0084683D01*
X0115756Y0084575D01*
X0113130Y0087202D01*
X0113300Y0087272D01*
X0113517Y0087489D01*
X0114407Y0086599D01*
X0116015Y0085933D01*
X0117756Y0085933D01*
X0119364Y0086599D01*
X0120583Y0087819D01*
X0128067Y0080335D01*
X0128798Y0079604D01*
X0128971Y0079532D01*
X0128971Y0076312D01*
X0130026Y0075258D01*
X0130721Y0075258D01*
X0130721Y0074301D01*
X0131109Y0073363D01*
X0131721Y0072752D01*
X0131721Y0051364D01*
X0131609Y0051252D01*
X0131343Y0050608D01*
X0131276Y0050608D01*
X0130221Y0049553D01*
X0130221Y0043062D01*
X0131276Y0042008D01*
X0133221Y0042008D01*
X0133221Y0041608D01*
X0131276Y0041608D01*
X0130221Y0040553D01*
X0130221Y0034062D01*
X0131276Y0033008D01*
X0131343Y0033008D01*
X0131609Y0032363D01*
X0138609Y0025363D01*
X0139327Y0024646D01*
X0140264Y0024258D01*
X0154215Y0024258D01*
X0156109Y0022364D01*
X0156109Y0021883D01*
X0156967Y0019811D01*
X0156479Y0020990D02*
X0135627Y0020990D01*
X0135989Y0022589D02*
X0155884Y0022589D01*
X0154286Y0024187D02*
X0135972Y0024187D01*
X0135309Y0025786D02*
X0138187Y0025786D01*
X0136589Y0027384D02*
X0133986Y0027384D01*
X0134990Y0028983D02*
X0114884Y0028983D01*
X0115040Y0029359D02*
X0114314Y0027607D01*
X0112972Y0026265D01*
X0111220Y0025539D01*
X0109323Y0025539D01*
X0107570Y0026265D01*
X0106229Y0027607D01*
X0105503Y0029359D01*
X0105503Y0031256D01*
X0106229Y0033009D01*
X0107570Y0034350D01*
X0109323Y0035076D01*
X0111220Y0035076D01*
X0112972Y0034350D01*
X0114314Y0033009D01*
X0115040Y0031256D01*
X0115040Y0029359D01*
X0115040Y0030581D02*
X0133392Y0030581D01*
X0131793Y0032180D02*
X0114657Y0032180D01*
X0113545Y0033778D02*
X0130505Y0033778D01*
X0130221Y0035377D02*
X0087071Y0035377D01*
X0087071Y0033778D02*
X0096998Y0033778D01*
X0095885Y0032180D02*
X0087071Y0032180D01*
X0087071Y0030581D02*
X0095503Y0030581D01*
X0095659Y0028983D02*
X0087071Y0028983D01*
X0082471Y0028983D02*
X0031267Y0028983D01*
X0031267Y0030581D02*
X0072434Y0030581D01*
X0071690Y0032180D02*
X0031267Y0032180D01*
X0031267Y0033778D02*
X0071797Y0033778D01*
X0072776Y0035377D02*
X0031267Y0035377D01*
X0031267Y0036975D02*
X0073971Y0036975D01*
X0074784Y0038574D02*
X0031267Y0038574D01*
X0031267Y0040172D02*
X0076383Y0040172D01*
X0076794Y0041771D02*
X0031267Y0041771D01*
X0031267Y0043369D02*
X0077768Y0043369D01*
X0077859Y0044968D02*
X0031267Y0044968D01*
X0031267Y0046566D02*
X0076260Y0046566D01*
X0074662Y0048165D02*
X0031267Y0048165D01*
X0031267Y0049763D02*
X0073063Y0049763D01*
X0071465Y0051362D02*
X0031267Y0051362D01*
X0031267Y0052960D02*
X0069866Y0052960D01*
X0068268Y0054559D02*
X0031267Y0054559D01*
X0031267Y0056157D02*
X0066669Y0056157D01*
X0065071Y0057756D02*
X0031267Y0057756D01*
X0031267Y0059354D02*
X0063472Y0059354D01*
X0061874Y0060953D02*
X0031267Y0060953D01*
X0031267Y0062551D02*
X0060275Y0062551D01*
X0058677Y0064150D02*
X0031267Y0064150D01*
X0031267Y0065748D02*
X0057078Y0065748D01*
X0053660Y0067347D02*
X0050624Y0067347D01*
X0052586Y0068945D02*
X0052715Y0068945D01*
X0049771Y0069808D02*
X0054771Y0074808D01*
X0058771Y0074808D01*
X0062771Y0070808D01*
X0071271Y0070808D01*
X0071885Y0070308D01*
X0072271Y0070308D01*
X0086271Y0084308D01*
X0088761Y0081733D02*
X0112093Y0081733D01*
X0112511Y0080135D02*
X0085775Y0080135D01*
X0084177Y0078536D02*
X0111247Y0078536D01*
X0109649Y0076938D02*
X0082578Y0076938D01*
X0080980Y0075339D02*
X0109471Y0075339D01*
X0109471Y0073741D02*
X0104639Y0073741D01*
X0105861Y0072142D02*
X0108353Y0072142D01*
X0111661Y0068945D02*
X0112715Y0068945D01*
X0113660Y0067347D02*
X0110352Y0067347D01*
X0110001Y0065748D02*
X0131721Y0065748D01*
X0131721Y0064150D02*
X0108505Y0064150D01*
X0105038Y0064150D02*
X0065182Y0064150D01*
X0063583Y0065748D02*
X0103541Y0065748D01*
X0098660Y0067347D02*
X0095111Y0067347D01*
X0095594Y0067830D02*
X0094364Y0066599D01*
X0092756Y0065933D01*
X0091015Y0065933D01*
X0089407Y0066599D01*
X0088177Y0067830D01*
X0087511Y0069438D01*
X0087511Y0071178D01*
X0088177Y0072786D01*
X0089407Y0074017D01*
X0091015Y0074683D01*
X0092756Y0074683D01*
X0094364Y0074017D01*
X0095594Y0072786D01*
X0096260Y0071178D01*
X0096260Y0069438D01*
X0095594Y0067830D01*
X0096056Y0068945D02*
X0097715Y0068945D01*
X0097511Y0070544D02*
X0096260Y0070544D01*
X0095861Y0072142D02*
X0097910Y0072142D01*
X0099132Y0073741D02*
X0094639Y0073741D01*
X0089132Y0073741D02*
X0084639Y0073741D01*
X0085861Y0072142D02*
X0087910Y0072142D01*
X0087511Y0070544D02*
X0086260Y0070544D01*
X0086056Y0068945D02*
X0087715Y0068945D01*
X0088660Y0067347D02*
X0085111Y0067347D01*
X0078660Y0067347D02*
X0075111Y0067347D01*
X0076056Y0068945D02*
X0077715Y0068945D01*
X0077511Y0070544D02*
X0076260Y0070544D01*
X0077783Y0072142D02*
X0077910Y0072142D01*
X0073626Y0075339D02*
X0061917Y0075339D01*
X0063515Y0073741D02*
X0069132Y0073741D01*
X0075224Y0076938D02*
X0060318Y0076938D01*
X0060887Y0078536D02*
X0076823Y0078536D01*
X0078421Y0080135D02*
X0061260Y0080135D01*
X0061030Y0081733D02*
X0080020Y0081733D01*
X0081618Y0083332D02*
X0060048Y0083332D01*
X0059194Y0086529D02*
X0078156Y0086529D01*
X0078151Y0086531D02*
X0078852Y0086174D01*
X0079600Y0085931D01*
X0080378Y0085808D01*
X0080685Y0085808D01*
X0080685Y0090722D01*
X0075771Y0090722D01*
X0075771Y0090414D01*
X0075894Y0089637D01*
X0076138Y0088889D01*
X0076495Y0088187D01*
X0076957Y0087551D01*
X0077514Y0086994D01*
X0078151Y0086531D01*
X0076538Y0088127D02*
X0060718Y0088127D01*
X0060594Y0087830D02*
X0061260Y0089438D01*
X0061260Y0091178D01*
X0060594Y0092786D01*
X0059364Y0094017D01*
X0057756Y0094683D01*
X0056015Y0094683D01*
X0054407Y0094017D01*
X0053177Y0092786D01*
X0052511Y0091178D01*
X0052511Y0089438D01*
X0053177Y0087830D01*
X0054407Y0086599D01*
X0056015Y0085933D01*
X0057756Y0085933D01*
X0059364Y0086599D01*
X0060594Y0087830D01*
X0061260Y0089726D02*
X0075880Y0089726D01*
X0075771Y0090894D02*
X0080685Y0090894D01*
X0080685Y0090722D01*
X0080857Y0090722D01*
X0080857Y0090894D01*
X0080685Y0090894D01*
X0080685Y0095808D01*
X0080378Y0095808D01*
X0079600Y0095685D01*
X0078852Y0095442D01*
X0078151Y0095084D01*
X0077514Y0094622D01*
X0076957Y0094065D01*
X0076495Y0093428D01*
X0076138Y0092727D01*
X0075894Y0091979D01*
X0075771Y0091201D01*
X0075771Y0090894D01*
X0075791Y0091325D02*
X0061200Y0091325D01*
X0060457Y0092923D02*
X0076237Y0092923D01*
X0077414Y0094522D02*
X0058145Y0094522D01*
X0057756Y0095933D02*
X0056015Y0095933D01*
X0054407Y0096599D01*
X0053177Y0097830D01*
X0052511Y0099438D01*
X0052511Y0101178D01*
X0053177Y0102786D01*
X0054407Y0104017D01*
X0056015Y0104683D01*
X0057756Y0104683D01*
X0059364Y0104017D01*
X0060594Y0102786D01*
X0061260Y0101178D01*
X0061260Y0099438D01*
X0060594Y0097830D01*
X0059364Y0096599D01*
X0057756Y0095933D01*
X0058207Y0096120D02*
X0079023Y0096120D01*
X0080857Y0095808D02*
X0080857Y0090894D01*
X0085771Y0090894D01*
X0085771Y0091201D01*
X0085648Y0091979D01*
X0085405Y0092727D01*
X0085048Y0093428D01*
X0084585Y0094065D01*
X0084029Y0094622D01*
X0083392Y0095084D01*
X0082691Y0095442D01*
X0081942Y0095685D01*
X0081165Y0095808D01*
X0080857Y0095808D01*
X0080857Y0094522D02*
X0080685Y0094522D01*
X0080685Y0092923D02*
X0080857Y0092923D01*
X0080857Y0091325D02*
X0080685Y0091325D01*
X0080685Y0089726D02*
X0080857Y0089726D01*
X0080857Y0088127D02*
X0080685Y0088127D01*
X0080685Y0086529D02*
X0080857Y0086529D01*
X0082690Y0084930D02*
X0004871Y0084930D01*
X0004871Y0083332D02*
X0053723Y0083332D01*
X0052741Y0081733D02*
X0004871Y0081733D01*
X0004871Y0080135D02*
X0052511Y0080135D01*
X0052884Y0078536D02*
X0041457Y0078536D01*
X0041457Y0076938D02*
X0053224Y0076938D01*
X0051626Y0075339D02*
X0041457Y0075339D01*
X0041457Y0073741D02*
X0050027Y0073741D01*
X0049771Y0069808D02*
X0034771Y0069808D01*
X0029271Y0075308D01*
X0029208Y0075308D01*
X0026187Y0072142D02*
X0024356Y0072142D01*
X0018313Y0072142D02*
X0016482Y0072142D01*
X0013460Y0072142D02*
X0013460Y0072142D01*
X0013460Y0073741D02*
X0013460Y0073741D01*
X0013460Y0075339D02*
X0013460Y0075339D01*
X0013460Y0076938D02*
X0013460Y0076938D01*
X0013460Y0078536D02*
X0013460Y0078536D01*
X0010502Y0078536D02*
X0004871Y0078536D01*
X0004871Y0076938D02*
X0009390Y0076938D01*
X0009085Y0075339D02*
X0004871Y0075339D01*
X0004871Y0073741D02*
X0009369Y0073741D01*
X0010439Y0072142D02*
X0004871Y0072142D01*
X0004871Y0070544D02*
X0030358Y0070544D01*
X0031957Y0068945D02*
X0004871Y0068945D01*
X0004871Y0067347D02*
X0033919Y0067347D01*
X0032707Y0078536D02*
X0032167Y0078536D01*
X0026250Y0078536D02*
X0024293Y0078536D01*
X0018376Y0078536D02*
X0016419Y0078536D01*
X0004871Y0086529D02*
X0054577Y0086529D01*
X0053053Y0088127D02*
X0004871Y0088127D01*
X0004871Y0089726D02*
X0052511Y0089726D01*
X0052571Y0091325D02*
X0004871Y0091325D01*
X0004871Y0092923D02*
X0053314Y0092923D01*
X0055626Y0094522D02*
X0004871Y0094522D01*
X0004871Y0096120D02*
X0055564Y0096120D01*
X0053288Y0097719D02*
X0004871Y0097719D01*
X0004871Y0099317D02*
X0052561Y0099317D01*
X0052511Y0100916D02*
X0004871Y0100916D01*
X0004871Y0102514D02*
X0053064Y0102514D01*
X0054639Y0104113D02*
X0041082Y0104113D01*
X0041457Y0104487D02*
X0041457Y0111128D01*
X0040403Y0112183D01*
X0039071Y0112183D01*
X0039071Y0117355D01*
X0039474Y0117758D01*
X0039511Y0117758D01*
X0040821Y0119069D01*
X0040821Y0123547D01*
X0040061Y0124308D01*
X0040461Y0124708D01*
X0052194Y0124708D01*
X0053298Y0123604D01*
X0053791Y0123400D01*
X0053177Y0122786D01*
X0052511Y0121178D01*
X0052511Y0119438D01*
X0053177Y0117830D01*
X0054407Y0116599D01*
X0056015Y0115933D01*
X0057756Y0115933D01*
X0059364Y0116599D01*
X0060594Y0117830D01*
X0061260Y0119438D01*
X0061260Y0121178D01*
X0061041Y0121708D01*
X0071307Y0121708D01*
X0071743Y0121272D01*
X0072620Y0120909D01*
X0070019Y0118308D01*
X0069675Y0118308D01*
X0068572Y0117851D01*
X0067728Y0117007D01*
X0067271Y0115905D01*
X0067271Y0114711D01*
X0067728Y0113609D01*
X0068572Y0112765D01*
X0069675Y0112308D01*
X0070868Y0112308D01*
X0071971Y0112765D01*
X0072815Y0113609D01*
X0073271Y0114711D01*
X0073271Y0115055D01*
X0086224Y0128008D01*
X0092724Y0128008D01*
X0094071Y0129355D01*
X0105756Y0141040D01*
X0106015Y0140933D01*
X0107756Y0140933D01*
X0109364Y0141599D01*
X0110594Y0142830D01*
X0111260Y0144438D01*
X0111260Y0146178D01*
X0110594Y0147786D01*
X0109364Y0149017D01*
X0107756Y0149683D01*
X0106015Y0149683D01*
X0104407Y0149017D01*
X0103177Y0147786D01*
X0102511Y0146178D01*
X0102511Y0144438D01*
X0102551Y0144340D01*
X0101165Y0142954D01*
X0101271Y0143211D01*
X0101271Y0144405D01*
X0100815Y0145507D01*
X0100571Y0145751D01*
X0100571Y0145855D01*
X0104724Y0150008D01*
X0109724Y0150008D01*
X0111071Y0151355D01*
X0115756Y0156040D01*
X0116015Y0155933D01*
X0117756Y0155933D01*
X0119364Y0156599D01*
X0120594Y0157830D01*
X0121260Y0159438D01*
X0121260Y0161178D01*
X0120594Y0162786D01*
X0119364Y0164017D01*
X0117756Y0164683D01*
X0116015Y0164683D01*
X0114407Y0164017D01*
X0113177Y0162786D01*
X0112511Y0161178D01*
X0112511Y0159438D01*
X0112551Y0159340D01*
X0107819Y0154608D01*
X0102819Y0154608D01*
X0097319Y0149108D01*
X0095971Y0147761D01*
X0095971Y0145751D01*
X0095728Y0145507D01*
X0095271Y0144405D01*
X0095271Y0143211D01*
X0095728Y0142109D01*
X0096572Y0141265D01*
X0097675Y0140808D01*
X0098868Y0140808D01*
X0099125Y0140914D01*
X0090819Y0132608D01*
X0085748Y0132608D01*
X0086975Y0133835D01*
X0087371Y0134791D01*
X0087371Y0147843D01*
X0087807Y0148279D01*
X0088352Y0149596D01*
X0088352Y0151020D01*
X0087807Y0152336D01*
X0086800Y0153344D01*
X0085484Y0153889D01*
X0084059Y0153889D01*
X0082743Y0153344D01*
X0081735Y0152336D01*
X0081190Y0151020D01*
X0081190Y0149596D01*
X0081735Y0148279D01*
X0082171Y0147843D01*
X0082171Y0136385D01*
X0073675Y0127889D01*
X0073059Y0127889D01*
X0071743Y0127344D01*
X0071307Y0126908D01*
X0060348Y0126908D01*
X0060010Y0127246D01*
X0060594Y0127830D01*
X0061260Y0129438D01*
X0061260Y0131178D01*
X0060594Y0132786D01*
X0059364Y0134017D01*
X0057756Y0134683D01*
X0056015Y0134683D01*
X0054407Y0134017D01*
X0053177Y0132786D01*
X0052511Y0131178D01*
X0052511Y0129908D01*
X0040461Y0129908D01*
X0039511Y0130858D01*
X0035032Y0130858D01*
X0034532Y0130358D01*
X0032511Y0130358D01*
X0032011Y0130858D01*
X0031327Y0130858D01*
X0025130Y0137055D01*
X0025271Y0137396D01*
X0025499Y0136845D01*
X0026730Y0135615D01*
X0028338Y0134949D01*
X0030078Y0134949D01*
X0031686Y0135615D01*
X0032707Y0136636D01*
X0032707Y0136003D01*
X0033762Y0134949D01*
X0040403Y0134949D01*
X0041457Y0136003D01*
X0041457Y0142644D01*
X0040403Y0143698D01*
X0033762Y0143698D01*
X0032707Y0142644D01*
X0032707Y0142011D01*
X0031686Y0143032D01*
X0030078Y0143698D01*
X0028338Y0143698D01*
X0026730Y0143032D01*
X0025499Y0141802D01*
X0025271Y0141251D01*
X0025043Y0141802D01*
X0023812Y0143032D01*
X0022204Y0143698D01*
X0020464Y0143698D01*
X0018856Y0143032D01*
X0017625Y0141802D01*
X0017393Y0141241D01*
X0017202Y0141617D01*
X0016797Y0142174D01*
X0016310Y0142661D01*
X0015753Y0143065D01*
X0015140Y0143378D01*
X0014485Y0143591D01*
X0013805Y0143698D01*
X0013460Y0143698D01*
X0013116Y0143698D01*
X0012436Y0143591D01*
X0011781Y0143378D01*
X0011167Y0143065D01*
X0010610Y0142661D01*
X0010123Y0142174D01*
X0009719Y0141617D01*
X0009406Y0141003D01*
X0009193Y0140348D01*
X0009085Y0139668D01*
X0009085Y0139324D01*
X0013460Y0139324D01*
X0013460Y0143698D01*
X0013460Y0139324D01*
X0013460Y0139324D01*
X0013460Y0139324D01*
X0009085Y0139324D01*
X0009085Y0138979D01*
X0009193Y0138299D01*
X0009406Y0137644D01*
X0009719Y0137031D01*
X0010123Y0136474D01*
X0010610Y0135987D01*
X0011167Y0135582D01*
X0011781Y0135269D01*
X0012436Y0135057D01*
X0013116Y0134949D01*
X0013460Y0134949D01*
X0013460Y0139323D01*
X0013460Y0139323D01*
X0013460Y0134949D01*
X0013805Y0134949D01*
X0014485Y0135057D01*
X0015140Y0135269D01*
X0015753Y0135582D01*
X0016310Y0135987D01*
X0016797Y0136474D01*
X0017202Y0137031D01*
X0017393Y0137406D01*
X0017625Y0136845D01*
X0018856Y0135615D01*
X0019993Y0135144D01*
X0020109Y0134863D01*
X0020827Y0134146D01*
X0026221Y0128752D01*
X0026221Y0125069D01*
X0026982Y0124308D01*
X0026221Y0123547D01*
X0026221Y0119069D01*
X0026971Y0118319D01*
X0026971Y0111617D01*
X0026730Y0111517D01*
X0025499Y0110286D01*
X0025271Y0109735D01*
X0025043Y0110286D01*
X0023812Y0111517D01*
X0022204Y0112183D01*
X0020464Y0112183D01*
X0018856Y0111517D01*
X0017625Y0110286D01*
X0017393Y0109725D01*
X0017202Y0110101D01*
X0016797Y0110658D01*
X0016310Y0111145D01*
X0015753Y0111550D01*
X0015140Y0111862D01*
X0014485Y0112075D01*
X0013805Y0112183D01*
X0013460Y0112183D01*
X0013116Y0112183D01*
X0012436Y0112075D01*
X0011781Y0111862D01*
X0011167Y0111550D01*
X0010610Y0111145D01*
X0010123Y0110658D01*
X0009719Y0110101D01*
X0009406Y0109487D01*
X0009193Y0108832D01*
X0009085Y0108152D01*
X0009085Y0107808D01*
X0013460Y0107808D01*
X0013460Y0107808D01*
X0013460Y0112183D01*
X0013460Y0107808D01*
X0013460Y0107808D01*
X0009085Y0107808D01*
X0009085Y0107464D01*
X0009193Y0106783D01*
X0009406Y0106129D01*
X0009719Y0105515D01*
X0010123Y0104958D01*
X0010610Y0104471D01*
X0011167Y0104066D01*
X0011781Y0103754D01*
X0012436Y0103541D01*
X0013116Y0103433D01*
X0013460Y0103433D01*
X0013460Y0107808D01*
X0013460Y0107808D01*
X0013460Y0103433D01*
X0013805Y0103433D01*
X0014485Y0103541D01*
X0015140Y0103754D01*
X0015753Y0104066D01*
X0016310Y0104471D01*
X0016797Y0104958D01*
X0017202Y0105515D01*
X0017393Y0105890D01*
X0017625Y0105330D01*
X0018856Y0104099D01*
X0020464Y0103433D01*
X0022204Y0103433D01*
X0023812Y0104099D01*
X0025043Y0105330D01*
X0025271Y0105881D01*
X0025499Y0105330D01*
X0026730Y0104099D01*
X0028338Y0103433D01*
X0030078Y0103433D01*
X0031686Y0104099D01*
X0032707Y0105120D01*
X0032707Y0104487D01*
X0033762Y0103433D01*
X0040403Y0103433D01*
X0041457Y0104487D01*
X0041457Y0105711D02*
X0079543Y0105711D01*
X0077198Y0107310D02*
X0060074Y0107310D01*
X0060594Y0107830D02*
X0061260Y0109438D01*
X0061260Y0111178D01*
X0060594Y0112786D01*
X0059364Y0114017D01*
X0057756Y0114683D01*
X0056015Y0114683D01*
X0054407Y0114017D01*
X0053177Y0112786D01*
X0052511Y0111178D01*
X0052511Y0109438D01*
X0053177Y0107830D01*
X0054407Y0106599D01*
X0056015Y0105933D01*
X0057756Y0105933D01*
X0059364Y0106599D01*
X0060594Y0107830D01*
X0061041Y0108908D02*
X0076146Y0108908D01*
X0075771Y0110507D02*
X0061260Y0110507D01*
X0060876Y0112105D02*
X0075897Y0112105D01*
X0076596Y0113704D02*
X0072854Y0113704D01*
X0073518Y0115302D02*
X0078556Y0115302D01*
X0076715Y0118499D02*
X0112899Y0118499D01*
X0113177Y0117830D02*
X0114407Y0116599D01*
X0116015Y0115933D01*
X0117756Y0115933D01*
X0119364Y0116599D01*
X0120594Y0117830D01*
X0121260Y0119438D01*
X0121260Y0121178D01*
X0120594Y0122786D01*
X0119364Y0124017D01*
X0117756Y0124683D01*
X0116015Y0124683D01*
X0115756Y0124575D01*
X0114071Y0126261D01*
X0112724Y0127608D01*
X0096214Y0127608D01*
X0095971Y0127851D01*
X0094868Y0128308D01*
X0093675Y0128308D01*
X0092572Y0127851D01*
X0091728Y0127007D01*
X0091271Y0125905D01*
X0091271Y0124711D01*
X0091728Y0123609D01*
X0092572Y0122765D01*
X0093675Y0122308D01*
X0094868Y0122308D01*
X0095971Y0122765D01*
X0096214Y0123008D01*
X0110819Y0123008D01*
X0112551Y0121275D01*
X0112511Y0121178D01*
X0112511Y0119438D01*
X0113177Y0117830D01*
X0114106Y0116901D02*
X0105355Y0116901D01*
X0104975Y0117281D02*
X0104975Y0117281D01*
X0102771Y0115808D02*
X0085771Y0115808D01*
X0080771Y0110808D01*
X0085396Y0108908D02*
X0086146Y0108908D01*
X0085771Y0109813D02*
X0086532Y0107976D01*
X0087939Y0106569D01*
X0089777Y0105808D01*
X0091766Y0105808D01*
X0089777Y0105808D01*
X0087939Y0105047D01*
X0086532Y0103640D01*
X0085847Y0101985D01*
X0085589Y0102243D01*
X0085010Y0103640D01*
X0083604Y0105047D01*
X0081766Y0105808D01*
X0083604Y0106569D01*
X0085010Y0107976D01*
X0085771Y0109813D01*
X0085771Y0111802D01*
X0086004Y0112363D01*
X0085675Y0112035D01*
X0085771Y0111802D01*
X0085771Y0109813D01*
X0085771Y0110507D02*
X0085771Y0110507D01*
X0085745Y0112105D02*
X0085897Y0112105D01*
X0083187Y0116901D02*
X0075117Y0116901D01*
X0078314Y0120098D02*
X0112511Y0120098D01*
X0112130Y0121696D02*
X0079912Y0121696D01*
X0081511Y0123295D02*
X0092042Y0123295D01*
X0091271Y0124893D02*
X0083109Y0124893D01*
X0084708Y0126492D02*
X0091514Y0126492D01*
X0092806Y0128090D02*
X0093149Y0128090D01*
X0094405Y0129689D02*
X0112511Y0129689D01*
X0112511Y0129438D02*
X0113177Y0127830D01*
X0114407Y0126599D01*
X0116015Y0125933D01*
X0117756Y0125933D01*
X0117853Y0125973D01*
X0123319Y0120508D01*
X0131170Y0120508D01*
X0131170Y0120210D01*
X0131931Y0119450D01*
X0131170Y0118689D01*
X0131170Y0114210D01*
X0132216Y0113164D01*
X0132121Y0112934D01*
X0132121Y0111681D01*
X0132601Y0110524D01*
X0133487Y0109637D01*
X0134645Y0109158D01*
X0135898Y0109158D01*
X0137056Y0109637D01*
X0137942Y0110524D01*
X0138421Y0111681D01*
X0138421Y0112934D01*
X0138003Y0113944D01*
X0138270Y0114210D01*
X0138270Y0118689D01*
X0137509Y0119450D01*
X0138270Y0120210D01*
X0138270Y0124689D01*
X0136959Y0126000D01*
X0136832Y0126000D01*
X0136571Y0126261D01*
X0136571Y0127203D01*
X0137109Y0127203D01*
X0138420Y0128513D01*
X0138420Y0128704D01*
X0138521Y0128805D01*
X0138819Y0128508D01*
X0142609Y0128508D01*
X0143717Y0127400D01*
X0148196Y0127400D01*
X0149506Y0128710D01*
X0149506Y0133189D01*
X0148746Y0133950D01*
X0149059Y0134263D01*
X0149354Y0134773D01*
X0149506Y0135343D01*
X0149506Y0136875D01*
X0146031Y0136875D01*
X0146031Y0137025D01*
X0145881Y0137025D01*
X0145881Y0140500D01*
X0144349Y0140500D01*
X0143780Y0140347D01*
X0143270Y0140053D01*
X0142853Y0139636D01*
X0142559Y0139126D01*
X0142406Y0138557D01*
X0142406Y0137025D01*
X0145881Y0137025D01*
X0145881Y0136875D01*
X0142406Y0136875D01*
X0142406Y0135343D01*
X0142559Y0134773D01*
X0142853Y0134263D01*
X0143167Y0133950D01*
X0142406Y0133189D01*
X0142406Y0133108D01*
X0140724Y0133108D01*
X0140224Y0133608D01*
X0137804Y0133608D01*
X0137659Y0133753D01*
X0137973Y0134066D01*
X0138267Y0134577D01*
X0138420Y0135146D01*
X0138420Y0136678D01*
X0134945Y0136678D01*
X0134945Y0136828D01*
X0138420Y0136828D01*
X0138420Y0138360D01*
X0138267Y0138929D01*
X0137973Y0139439D01*
X0137556Y0139856D01*
X0137046Y0140150D01*
X0136477Y0140303D01*
X0134945Y0140303D01*
X0134945Y0136828D01*
X0134795Y0136828D01*
X0134795Y0140303D01*
X0133263Y0140303D01*
X0132694Y0140150D01*
X0132183Y0139856D01*
X0131767Y0139439D01*
X0131472Y0138929D01*
X0131320Y0138360D01*
X0131320Y0136828D01*
X0134795Y0136828D01*
X0134795Y0136678D01*
X0131320Y0136678D01*
X0131320Y0135146D01*
X0131472Y0134577D01*
X0131767Y0134066D01*
X0132080Y0133753D01*
X0131320Y0132992D01*
X0131320Y0128513D01*
X0131971Y0127862D01*
X0131971Y0125490D01*
X0131589Y0125108D01*
X0125224Y0125108D01*
X0121153Y0129179D01*
X0121260Y0129438D01*
X0121260Y0131178D01*
X0120594Y0132786D01*
X0119364Y0134017D01*
X0117756Y0134683D01*
X0116015Y0134683D01*
X0114407Y0134017D01*
X0113177Y0132786D01*
X0112511Y0131178D01*
X0112511Y0129438D01*
X0113069Y0128090D02*
X0095393Y0128090D01*
X0096003Y0131287D02*
X0105160Y0131287D01*
X0104407Y0131599D02*
X0103177Y0132830D01*
X0102511Y0134438D01*
X0102511Y0136178D01*
X0103177Y0137786D01*
X0104407Y0139017D01*
X0106015Y0139683D01*
X0107756Y0139683D01*
X0109364Y0139017D01*
X0110594Y0137786D01*
X0111260Y0136178D01*
X0111260Y0134438D01*
X0110594Y0132830D01*
X0109364Y0131599D01*
X0107756Y0130933D01*
X0106015Y0130933D01*
X0104407Y0131599D01*
X0103153Y0132886D02*
X0097602Y0132886D01*
X0099200Y0134484D02*
X0102511Y0134484D01*
X0102511Y0136083D02*
X0100799Y0136083D01*
X0102397Y0137681D02*
X0103133Y0137681D01*
X0103996Y0139280D02*
X0105043Y0139280D01*
X0105594Y0140878D02*
X0112511Y0140878D01*
X0112511Y0141178D02*
X0112511Y0139438D01*
X0113177Y0137830D01*
X0114407Y0136599D01*
X0116015Y0135933D01*
X0117756Y0135933D01*
X0119364Y0136599D01*
X0120594Y0137830D01*
X0121260Y0139438D01*
X0121260Y0141178D01*
X0120594Y0142786D01*
X0119364Y0144017D01*
X0117756Y0144683D01*
X0116015Y0144683D01*
X0114407Y0144017D01*
X0113177Y0142786D01*
X0112511Y0141178D01*
X0113049Y0142477D02*
X0110241Y0142477D01*
X0111110Y0144075D02*
X0114549Y0144075D01*
X0116015Y0145933D02*
X0114407Y0146599D01*
X0113177Y0147830D01*
X0112511Y0149438D01*
X0112511Y0151178D01*
X0113177Y0152786D01*
X0114407Y0154017D01*
X0116015Y0154683D01*
X0117756Y0154683D01*
X0119364Y0154017D01*
X0120594Y0152786D01*
X0121260Y0151178D01*
X0121260Y0149438D01*
X0120594Y0147830D01*
X0119364Y0146599D01*
X0117756Y0145933D01*
X0116015Y0145933D01*
X0113734Y0147272D02*
X0110807Y0147272D01*
X0111260Y0145674D02*
X0194522Y0145674D01*
X0194522Y0147272D02*
X0120037Y0147272D01*
X0121025Y0148871D02*
X0194522Y0148871D01*
X0194522Y0150469D02*
X0121260Y0150469D01*
X0120892Y0152068D02*
X0194522Y0152068D01*
X0194522Y0153666D02*
X0119714Y0153666D01*
X0119628Y0156863D02*
X0194522Y0156863D01*
X0194522Y0155265D02*
X0114981Y0155265D01*
X0114057Y0153666D02*
X0113383Y0153666D01*
X0112879Y0152068D02*
X0111784Y0152068D01*
X0112511Y0150469D02*
X0110185Y0150469D01*
X0109509Y0148871D02*
X0112745Y0148871D01*
X0119222Y0144075D02*
X0194522Y0144075D01*
X0194522Y0142477D02*
X0120722Y0142477D01*
X0121260Y0140878D02*
X0194522Y0140878D01*
X0194522Y0139280D02*
X0149265Y0139280D01*
X0149354Y0139126D02*
X0149059Y0139636D01*
X0148643Y0140053D01*
X0148132Y0140347D01*
X0147563Y0140500D01*
X0146031Y0140500D01*
X0146031Y0137025D01*
X0149506Y0137025D01*
X0149506Y0138557D01*
X0149354Y0139126D01*
X0149506Y0137681D02*
X0194522Y0137681D01*
X0194522Y0136083D02*
X0149506Y0136083D01*
X0149187Y0134484D02*
X0194522Y0134484D01*
X0194522Y0132886D02*
X0149506Y0132886D01*
X0149506Y0131287D02*
X0194522Y0131287D01*
X0194522Y0129689D02*
X0149506Y0129689D01*
X0148886Y0128090D02*
X0194522Y0128090D01*
X0194522Y0126492D02*
X0136571Y0126492D01*
X0137996Y0128090D02*
X0143026Y0128090D01*
X0138066Y0124893D02*
X0194522Y0124893D01*
X0194522Y0123295D02*
X0138270Y0123295D01*
X0138270Y0121696D02*
X0194522Y0121696D01*
X0194522Y0120098D02*
X0138157Y0120098D01*
X0138270Y0118499D02*
X0194522Y0118499D01*
X0194522Y0116901D02*
X0138270Y0116901D01*
X0138270Y0115302D02*
X0194522Y0115302D01*
X0194522Y0113704D02*
X0138103Y0113704D01*
X0138421Y0112105D02*
X0194522Y0112105D01*
X0194522Y0110507D02*
X0137925Y0110507D01*
X0132618Y0110507D02*
X0121260Y0110507D01*
X0121041Y0108908D02*
X0194522Y0108908D01*
X0194522Y0107310D02*
X0120074Y0107310D01*
X0121545Y0105711D02*
X0194522Y0105711D01*
X0194522Y0104113D02*
X0123143Y0104113D01*
X0123871Y0102514D02*
X0194522Y0102514D01*
X0194522Y0100916D02*
X0123871Y0100916D01*
X0123871Y0099317D02*
X0194522Y0099317D01*
X0194522Y0097719D02*
X0123871Y0097719D01*
X0123871Y0096120D02*
X0194522Y0096120D01*
X0194522Y0094522D02*
X0123871Y0094522D01*
X0123871Y0092923D02*
X0194522Y0092923D01*
X0194522Y0091325D02*
X0124432Y0091325D01*
X0126030Y0089726D02*
X0194522Y0089726D01*
X0194522Y0088127D02*
X0139695Y0088127D01*
X0141175Y0086529D02*
X0194522Y0086529D01*
X0194522Y0084930D02*
X0141421Y0084930D01*
X0140750Y0083332D02*
X0194522Y0083332D01*
X0194522Y0081733D02*
X0137571Y0081733D01*
X0137571Y0080135D02*
X0194522Y0080135D01*
X0194522Y0078536D02*
X0137571Y0078536D01*
X0137571Y0076938D02*
X0194522Y0076938D01*
X0194522Y0075339D02*
X0136598Y0075339D01*
X0136821Y0073741D02*
X0194522Y0073741D01*
X0194522Y0072142D02*
X0136821Y0072142D01*
X0136821Y0070544D02*
X0194522Y0070544D01*
X0194522Y0068945D02*
X0136821Y0068945D01*
X0136821Y0067347D02*
X0194522Y0067347D01*
X0194522Y0065748D02*
X0136821Y0065748D01*
X0136821Y0064150D02*
X0194522Y0064150D01*
X0194522Y0062551D02*
X0136821Y0062551D01*
X0136821Y0060953D02*
X0194522Y0060953D01*
X0194522Y0059354D02*
X0136821Y0059354D01*
X0136821Y0057756D02*
X0194522Y0057756D01*
X0194522Y0056157D02*
X0136821Y0056157D01*
X0136821Y0054559D02*
X0194522Y0054559D01*
X0194522Y0052960D02*
X0136821Y0052960D01*
X0136821Y0051362D02*
X0194522Y0051362D01*
X0194522Y0049763D02*
X0145368Y0049763D01*
X0147119Y0048165D02*
X0194522Y0048165D01*
X0194522Y0046566D02*
X0147421Y0046566D01*
X0146886Y0044968D02*
X0194522Y0044968D01*
X0194522Y0043369D02*
X0143321Y0043369D01*
X0142133Y0041771D02*
X0194522Y0041771D01*
X0194522Y0040172D02*
X0143321Y0040172D01*
X0143321Y0038574D02*
X0194522Y0038574D01*
X0194522Y0036975D02*
X0143321Y0036975D01*
X0143321Y0035377D02*
X0194522Y0035377D01*
X0194522Y0033778D02*
X0143037Y0033778D01*
X0140604Y0030581D02*
X0194522Y0030581D01*
X0194522Y0028983D02*
X0156685Y0028983D01*
X0165342Y0027384D02*
X0194522Y0027384D01*
X0194522Y0025786D02*
X0166699Y0025786D01*
X0167361Y0024187D02*
X0194522Y0024187D01*
X0194522Y0022589D02*
X0167386Y0022589D01*
X0167016Y0020990D02*
X0194522Y0020990D01*
X0194522Y0019391D02*
X0166109Y0019391D01*
X0163900Y0017793D02*
X0194522Y0017793D01*
X0194522Y0016194D02*
X0112801Y0016194D01*
X0114391Y0017793D02*
X0127842Y0017793D01*
X0125751Y0019391D02*
X0115040Y0019391D01*
X0115040Y0020990D02*
X0124876Y0020990D01*
X0124515Y0022589D02*
X0114488Y0022589D01*
X0113136Y0024187D02*
X0124532Y0024187D01*
X0125194Y0025786D02*
X0111814Y0025786D01*
X0114091Y0027384D02*
X0126518Y0027384D01*
X0130221Y0036975D02*
X0113682Y0036975D01*
X0114314Y0037607D02*
X0115040Y0039359D01*
X0115040Y0041256D01*
X0114314Y0043009D01*
X0112972Y0044350D01*
X0111220Y0045076D01*
X0109323Y0045076D01*
X0107570Y0044350D01*
X0106229Y0043009D01*
X0105503Y0041256D01*
X0105503Y0039359D01*
X0106229Y0037607D01*
X0107570Y0036265D01*
X0109323Y0035539D01*
X0111220Y0035539D01*
X0112972Y0036265D01*
X0114314Y0037607D01*
X0114714Y0038574D02*
X0130221Y0038574D01*
X0130221Y0040172D02*
X0115040Y0040172D01*
X0114827Y0041771D02*
X0133221Y0041771D01*
X0130221Y0043369D02*
X0113954Y0043369D01*
X0111482Y0044968D02*
X0130221Y0044968D01*
X0130221Y0046566D02*
X0100426Y0046566D01*
X0100852Y0048165D02*
X0130221Y0048165D01*
X0130431Y0049763D02*
X0100545Y0049763D01*
X0099256Y0051362D02*
X0131719Y0051362D01*
X0131721Y0052960D02*
X0076372Y0052960D01*
X0077970Y0051362D02*
X0095286Y0051362D01*
X0093998Y0049763D02*
X0079569Y0049763D01*
X0081167Y0048165D02*
X0093690Y0048165D01*
X0092277Y0046566D02*
X0082766Y0046566D01*
X0084364Y0044968D02*
X0090678Y0044968D01*
X0089080Y0043369D02*
X0085963Y0043369D01*
X0092388Y0040172D02*
X0095503Y0040172D01*
X0095503Y0039359D02*
X0095503Y0041256D01*
X0096229Y0043009D01*
X0097570Y0044350D01*
X0099323Y0045076D01*
X0101220Y0045076D01*
X0102972Y0044350D01*
X0104314Y0043009D01*
X0105040Y0041256D01*
X0105040Y0039359D01*
X0104314Y0037607D01*
X0102972Y0036265D01*
X0101220Y0035539D01*
X0099323Y0035539D01*
X0097570Y0036265D01*
X0096229Y0037607D01*
X0095503Y0039359D01*
X0095828Y0038574D02*
X0091843Y0038574D01*
X0091003Y0036975D02*
X0096860Y0036975D01*
X0095716Y0041771D02*
X0093987Y0041771D01*
X0095585Y0043369D02*
X0096589Y0043369D01*
X0098565Y0044968D02*
X0099060Y0044968D01*
X0101482Y0044968D02*
X0109060Y0044968D01*
X0106589Y0043369D02*
X0103954Y0043369D01*
X0104827Y0041771D02*
X0105716Y0041771D01*
X0105503Y0040172D02*
X0105040Y0040172D01*
X0104714Y0038574D02*
X0105828Y0038574D01*
X0106860Y0036975D02*
X0103682Y0036975D01*
X0103545Y0033778D02*
X0106998Y0033778D01*
X0105885Y0032180D02*
X0104657Y0032180D01*
X0105040Y0030581D02*
X0105503Y0030581D01*
X0105659Y0028983D02*
X0104884Y0028983D01*
X0106448Y0027384D02*
X0106451Y0027384D01*
X0108046Y0025786D02*
X0108728Y0025786D01*
X0104738Y0022589D02*
X0104488Y0022589D01*
X0105040Y0020990D02*
X0105503Y0020990D01*
X0105503Y0019391D02*
X0105040Y0019391D01*
X0104391Y0017793D02*
X0106152Y0017793D01*
X0107741Y0016194D02*
X0102801Y0016194D01*
X0102380Y0014596D02*
X0106077Y0014596D01*
X0106198Y0014717D02*
X0105862Y0014382D01*
X0105625Y0013971D01*
X0105503Y0013513D01*
X0105503Y0010492D01*
X0110087Y0010492D01*
X0110087Y0015076D01*
X0107066Y0015076D01*
X0106608Y0014954D01*
X0106198Y0014717D01*
X0105503Y0012997D02*
X0104319Y0012997D01*
X0104314Y0013009D02*
X0102972Y0014350D01*
X0101220Y0015076D01*
X0099323Y0015076D01*
X0097570Y0014350D01*
X0096229Y0013009D01*
X0095503Y0011256D01*
X0095503Y0009359D01*
X0096229Y0007607D01*
X0097570Y0006265D01*
X0099323Y0005539D01*
X0101220Y0005539D01*
X0102972Y0006265D01*
X0104314Y0007607D01*
X0105040Y0009359D01*
X0105040Y0011256D01*
X0104314Y0013009D01*
X0104981Y0011399D02*
X0105503Y0011399D01*
X0105503Y0009800D02*
X0105040Y0009800D01*
X0105503Y0008202D02*
X0104560Y0008202D01*
X0105649Y0006603D02*
X0103310Y0006603D01*
X0097232Y0006603D02*
X0031267Y0006603D01*
X0031267Y0008202D02*
X0095982Y0008202D01*
X0095503Y0009800D02*
X0031267Y0009800D01*
X0031267Y0011399D02*
X0095562Y0011399D01*
X0096224Y0012997D02*
X0031267Y0012997D01*
X0031267Y0014596D02*
X0098163Y0014596D01*
X0097741Y0016194D02*
X0031267Y0016194D01*
X0031267Y0017793D02*
X0096152Y0017793D01*
X0095503Y0019391D02*
X0031267Y0019391D01*
X0031267Y0020990D02*
X0095503Y0020990D01*
X0096055Y0022589D02*
X0031267Y0022589D01*
X0031267Y0024187D02*
X0084639Y0024187D01*
X0083041Y0025786D02*
X0031267Y0025786D01*
X0031267Y0027384D02*
X0082471Y0027384D01*
X0082471Y0030581D02*
X0078109Y0030581D01*
X0078852Y0032180D02*
X0082471Y0032180D01*
X0082471Y0033778D02*
X0078746Y0033778D01*
X0078571Y0035377D02*
X0082471Y0035377D01*
X0082471Y0036975D02*
X0079691Y0036975D01*
X0074773Y0054559D02*
X0131721Y0054559D01*
X0131721Y0056157D02*
X0073175Y0056157D01*
X0071576Y0057756D02*
X0131721Y0057756D01*
X0131721Y0059354D02*
X0069978Y0059354D01*
X0068379Y0060953D02*
X0131721Y0060953D01*
X0131721Y0062551D02*
X0066780Y0062551D01*
X0068660Y0067347D02*
X0061985Y0067347D01*
X0083387Y0086529D02*
X0083428Y0086529D01*
X0085004Y0088127D02*
X0086470Y0088127D01*
X0085807Y0089726D02*
X0085662Y0089726D01*
X0085752Y0091325D02*
X0085771Y0091325D01*
X0085305Y0092923D02*
X0086235Y0092923D01*
X0086805Y0094522D02*
X0084129Y0094522D01*
X0085206Y0096120D02*
X0082519Y0096120D01*
X0076790Y0097719D02*
X0060483Y0097719D01*
X0061210Y0099317D02*
X0075977Y0099317D01*
X0075771Y0100916D02*
X0061260Y0100916D01*
X0060707Y0102514D02*
X0076066Y0102514D01*
X0077005Y0104113D02*
X0059132Y0104113D01*
X0053697Y0107310D02*
X0041457Y0107310D01*
X0041457Y0108908D02*
X0052730Y0108908D01*
X0052511Y0110507D02*
X0041457Y0110507D01*
X0040480Y0112105D02*
X0052895Y0112105D01*
X0054094Y0113704D02*
X0039071Y0113704D01*
X0039071Y0115302D02*
X0067271Y0115302D01*
X0067684Y0116901D02*
X0059665Y0116901D01*
X0060871Y0118499D02*
X0070210Y0118499D01*
X0071808Y0120098D02*
X0061260Y0120098D01*
X0061046Y0121696D02*
X0071318Y0121696D01*
X0073771Y0124308D02*
X0059271Y0124308D01*
X0057771Y0125808D01*
X0054771Y0125808D01*
X0053271Y0127308D01*
X0037271Y0127308D01*
X0040821Y0123295D02*
X0053685Y0123295D01*
X0052725Y0121696D02*
X0040821Y0121696D01*
X0040821Y0120098D02*
X0052511Y0120098D01*
X0052899Y0118499D02*
X0040252Y0118499D01*
X0039071Y0116901D02*
X0054106Y0116901D01*
X0059677Y0113704D02*
X0067689Y0113704D01*
X0073771Y0124308D02*
X0084771Y0135308D01*
X0084771Y0150308D01*
X0081624Y0152068D02*
X0060899Y0152068D01*
X0060940Y0151987D02*
X0060627Y0152601D01*
X0060222Y0153158D01*
X0059735Y0153645D01*
X0059178Y0154050D01*
X0058565Y0154362D01*
X0057910Y0154575D01*
X0057230Y0154683D01*
X0056885Y0154683D01*
X0056541Y0154683D01*
X0055861Y0154575D01*
X0055206Y0154362D01*
X0054593Y0154050D01*
X0054035Y0153645D01*
X0053549Y0153158D01*
X0053144Y0152601D01*
X0052831Y0151987D01*
X0052618Y0151332D01*
X0052511Y0150652D01*
X0052511Y0150308D01*
X0056885Y0150308D01*
X0056885Y0150308D01*
X0052511Y0150308D01*
X0052511Y0149964D01*
X0052618Y0149283D01*
X0052831Y0148629D01*
X0053144Y0148015D01*
X0053549Y0147458D01*
X0054035Y0146971D01*
X0054593Y0146566D01*
X0055206Y0146254D01*
X0055861Y0146041D01*
X0056541Y0145933D01*
X0056885Y0145933D01*
X0056885Y0150308D01*
X0056885Y0154683D01*
X0056885Y0150308D01*
X0056885Y0150308D01*
X0056885Y0150308D01*
X0056885Y0145933D01*
X0057230Y0145933D01*
X0057910Y0146041D01*
X0058565Y0146254D01*
X0059178Y0146566D01*
X0059735Y0146971D01*
X0060222Y0147458D01*
X0060627Y0148015D01*
X0060940Y0148629D01*
X0061152Y0149283D01*
X0061260Y0149964D01*
X0061260Y0150308D01*
X0061260Y0150652D01*
X0061152Y0151332D01*
X0060940Y0151987D01*
X0061260Y0150469D02*
X0081190Y0150469D01*
X0081490Y0148871D02*
X0061018Y0148871D01*
X0061260Y0150308D02*
X0056886Y0150308D01*
X0061260Y0150308D01*
X0060037Y0147272D02*
X0082171Y0147272D01*
X0082171Y0145674D02*
X0004871Y0145674D01*
X0004871Y0147272D02*
X0053734Y0147272D01*
X0052752Y0148871D02*
X0004871Y0148871D01*
X0004871Y0150469D02*
X0052511Y0150469D01*
X0052872Y0152068D02*
X0004871Y0152068D01*
X0004871Y0153666D02*
X0054065Y0153666D01*
X0056885Y0153666D02*
X0056885Y0153666D01*
X0056885Y0152068D02*
X0056885Y0152068D01*
X0056885Y0150469D02*
X0056885Y0150469D01*
X0056886Y0150308D02*
X0056886Y0150308D01*
X0056885Y0148871D02*
X0056885Y0148871D01*
X0056885Y0147272D02*
X0056885Y0147272D01*
X0056015Y0144683D02*
X0054407Y0144017D01*
X0053177Y0142786D01*
X0052511Y0141178D01*
X0052511Y0139438D01*
X0053177Y0137830D01*
X0054407Y0136599D01*
X0056015Y0135933D01*
X0057756Y0135933D01*
X0059364Y0136599D01*
X0060594Y0137830D01*
X0061260Y0139438D01*
X0061260Y0141178D01*
X0060594Y0142786D01*
X0059364Y0144017D01*
X0057756Y0144683D01*
X0056015Y0144683D01*
X0054549Y0144075D02*
X0004871Y0144075D01*
X0004871Y0142477D02*
X0010427Y0142477D01*
X0009365Y0140878D02*
X0004871Y0140878D01*
X0004871Y0139280D02*
X0009085Y0139280D01*
X0009394Y0137681D02*
X0004871Y0137681D01*
X0004871Y0136083D02*
X0010514Y0136083D01*
X0013460Y0136083D02*
X0013460Y0136083D01*
X0013460Y0137681D02*
X0013460Y0137681D01*
X0013460Y0139280D02*
X0013460Y0139280D01*
X0013460Y0140878D02*
X0013460Y0140878D01*
X0013460Y0142477D02*
X0013460Y0142477D01*
X0016494Y0142477D02*
X0018301Y0142477D01*
X0024368Y0142477D02*
X0026175Y0142477D01*
X0032242Y0142477D02*
X0032707Y0142477D01*
X0032707Y0136083D02*
X0032154Y0136083D01*
X0029300Y0132886D02*
X0053276Y0132886D01*
X0052556Y0131287D02*
X0030898Y0131287D01*
X0027701Y0134484D02*
X0055536Y0134484D01*
X0055654Y0136083D02*
X0041457Y0136083D01*
X0041457Y0137681D02*
X0053325Y0137681D01*
X0052576Y0139280D02*
X0041457Y0139280D01*
X0041457Y0140878D02*
X0052511Y0140878D01*
X0053049Y0142477D02*
X0041457Y0142477D01*
X0026262Y0136083D02*
X0026103Y0136083D01*
X0022087Y0132886D02*
X0004871Y0132886D01*
X0004871Y0134484D02*
X0020489Y0134484D01*
X0018388Y0136083D02*
X0016406Y0136083D01*
X0023686Y0131287D02*
X0004871Y0131287D01*
X0004871Y0129689D02*
X0025284Y0129689D01*
X0026221Y0128090D02*
X0004871Y0128090D01*
X0004871Y0126492D02*
X0026221Y0126492D01*
X0026397Y0124893D02*
X0004871Y0124893D01*
X0004871Y0123295D02*
X0026221Y0123295D01*
X0026221Y0121696D02*
X0004871Y0121696D01*
X0004871Y0120098D02*
X0026221Y0120098D01*
X0026791Y0118499D02*
X0004871Y0118499D01*
X0004871Y0116901D02*
X0026971Y0116901D01*
X0026971Y0115302D02*
X0004871Y0115302D01*
X0004871Y0113704D02*
X0026971Y0113704D01*
X0026971Y0112105D02*
X0022392Y0112105D01*
X0020277Y0112105D02*
X0014294Y0112105D01*
X0013460Y0112105D02*
X0013460Y0112105D01*
X0012627Y0112105D02*
X0004871Y0112105D01*
X0004871Y0110507D02*
X0010013Y0110507D01*
X0009218Y0108908D02*
X0004871Y0108908D01*
X0004871Y0107310D02*
X0009110Y0107310D01*
X0009619Y0105711D02*
X0004871Y0105711D01*
X0004871Y0104113D02*
X0011103Y0104113D01*
X0013460Y0104113D02*
X0013460Y0104113D01*
X0013460Y0105711D02*
X0013460Y0105711D01*
X0013460Y0107310D02*
X0013460Y0107310D01*
X0013460Y0108908D02*
X0013460Y0108908D01*
X0013460Y0110507D02*
X0013460Y0110507D01*
X0016907Y0110507D02*
X0017846Y0110507D01*
X0017467Y0105711D02*
X0017302Y0105711D01*
X0015817Y0104113D02*
X0018843Y0104113D01*
X0023826Y0104113D02*
X0026717Y0104113D01*
X0025342Y0105711D02*
X0025201Y0105711D01*
X0024822Y0110507D02*
X0025720Y0110507D01*
X0031700Y0104113D02*
X0033082Y0104113D01*
X0060702Y0128090D02*
X0073877Y0128090D01*
X0075475Y0129689D02*
X0061260Y0129689D01*
X0061215Y0131287D02*
X0077074Y0131287D01*
X0078672Y0132886D02*
X0060494Y0132886D01*
X0058235Y0134484D02*
X0080271Y0134484D01*
X0081869Y0136083D02*
X0058117Y0136083D01*
X0060446Y0137681D02*
X0082171Y0137681D01*
X0082171Y0139280D02*
X0061195Y0139280D01*
X0061260Y0140878D02*
X0082171Y0140878D01*
X0082171Y0142477D02*
X0060722Y0142477D01*
X0059222Y0144075D02*
X0082171Y0144075D01*
X0087371Y0144075D02*
X0095271Y0144075D01*
X0095575Y0142477D02*
X0087371Y0142477D01*
X0087371Y0140878D02*
X0097504Y0140878D01*
X0099038Y0140878D02*
X0099089Y0140878D01*
X0097491Y0139280D02*
X0087371Y0139280D01*
X0087371Y0137681D02*
X0095892Y0137681D01*
X0094294Y0136083D02*
X0087371Y0136083D01*
X0087244Y0134484D02*
X0092695Y0134484D01*
X0091097Y0132886D02*
X0086026Y0132886D01*
X0087371Y0145674D02*
X0095895Y0145674D01*
X0095971Y0147272D02*
X0087371Y0147272D01*
X0088052Y0148871D02*
X0097082Y0148871D01*
X0098680Y0150469D02*
X0088352Y0150469D01*
X0087918Y0152068D02*
X0100279Y0152068D01*
X0101877Y0153666D02*
X0086021Y0153666D01*
X0083522Y0153666D02*
X0059706Y0153666D01*
X0059364Y0156599D02*
X0060594Y0157830D01*
X0061260Y0159438D01*
X0061260Y0161178D01*
X0060594Y0162786D01*
X0059364Y0164017D01*
X0057756Y0164683D01*
X0056015Y0164683D01*
X0054407Y0164017D01*
X0053177Y0162786D01*
X0052511Y0161178D01*
X0052511Y0159438D01*
X0053177Y0157830D01*
X0054407Y0156599D01*
X0056015Y0155933D01*
X0057756Y0155933D01*
X0059364Y0156599D01*
X0059628Y0156863D02*
X0110074Y0156863D01*
X0108476Y0155265D02*
X0004871Y0155265D01*
X0004871Y0156863D02*
X0054143Y0156863D01*
X0052915Y0158462D02*
X0004871Y0158462D01*
X0004871Y0160060D02*
X0052511Y0160060D01*
X0052710Y0161659D02*
X0004871Y0161659D01*
X0004871Y0163258D02*
X0053648Y0163258D01*
X0054756Y0166455D02*
X0040924Y0166455D01*
X0040403Y0165933D02*
X0041457Y0166987D01*
X0041457Y0173628D01*
X0040403Y0174683D01*
X0033762Y0174683D01*
X0032707Y0173628D01*
X0032707Y0172996D01*
X0031686Y0174017D01*
X0030078Y0174683D01*
X0028338Y0174683D01*
X0026730Y0174017D01*
X0025499Y0172786D01*
X0025271Y0172235D01*
X0025043Y0172786D01*
X0023812Y0174017D01*
X0022204Y0174683D01*
X0020464Y0174683D01*
X0018856Y0174017D01*
X0017625Y0172786D01*
X0017393Y0172225D01*
X0017202Y0172601D01*
X0016797Y0173158D01*
X0016310Y0173645D01*
X0015753Y0174050D01*
X0015140Y0174362D01*
X0014485Y0174575D01*
X0013805Y0174683D01*
X0013460Y0174683D01*
X0013116Y0174683D01*
X0012436Y0174575D01*
X0011781Y0174362D01*
X0011167Y0174050D01*
X0010610Y0173645D01*
X0010123Y0173158D01*
X0009719Y0172601D01*
X0009406Y0171987D01*
X0009193Y0171332D01*
X0009085Y0170652D01*
X0009085Y0170308D01*
X0013460Y0170308D01*
X0013460Y0170308D01*
X0013460Y0174683D01*
X0013460Y0170308D01*
X0013460Y0170308D01*
X0009085Y0170308D01*
X0009085Y0169964D01*
X0009193Y0169283D01*
X0009406Y0168629D01*
X0009719Y0168015D01*
X0010123Y0167458D01*
X0010610Y0166971D01*
X0011167Y0166566D01*
X0011781Y0166254D01*
X0012436Y0166041D01*
X0013116Y0165933D01*
X0013460Y0165933D01*
X0013460Y0170308D01*
X0013460Y0170308D01*
X0013460Y0165933D01*
X0013805Y0165933D01*
X0014485Y0166041D01*
X0015140Y0166254D01*
X0015753Y0166566D01*
X0016310Y0166971D01*
X0016797Y0167458D01*
X0017202Y0168015D01*
X0017393Y0168390D01*
X0017625Y0167830D01*
X0018856Y0166599D01*
X0020464Y0165933D01*
X0022204Y0165933D01*
X0023812Y0166599D01*
X0025043Y0167830D01*
X0025271Y0168381D01*
X0025499Y0167830D01*
X0026730Y0166599D01*
X0028338Y0165933D01*
X0030078Y0165933D01*
X0031686Y0166599D01*
X0032707Y0167620D01*
X0032707Y0166987D01*
X0033762Y0165933D01*
X0040403Y0165933D01*
X0041457Y0168053D02*
X0053084Y0168053D01*
X0053177Y0167830D02*
X0054407Y0166599D01*
X0056015Y0165933D01*
X0057756Y0165933D01*
X0059364Y0166599D01*
X0060594Y0167830D01*
X0061260Y0169438D01*
X0061260Y0171178D01*
X0060594Y0172786D01*
X0059364Y0174017D01*
X0057756Y0174683D01*
X0056015Y0174683D01*
X0054407Y0174017D01*
X0053177Y0172786D01*
X0052511Y0171178D01*
X0052511Y0169438D01*
X0053177Y0167830D01*
X0052511Y0169652D02*
X0041457Y0169652D01*
X0041457Y0171250D02*
X0052540Y0171250D01*
X0053239Y0172849D02*
X0041457Y0172849D01*
X0040638Y0174447D02*
X0055447Y0174447D01*
X0056015Y0175933D02*
X0054407Y0176599D01*
X0053177Y0177830D01*
X0052511Y0179438D01*
X0052511Y0181178D01*
X0053177Y0182786D01*
X0054407Y0184017D01*
X0056015Y0184683D01*
X0057756Y0184683D01*
X0059364Y0184017D01*
X0060594Y0182786D01*
X0061260Y0181178D01*
X0061260Y0179438D01*
X0060594Y0177830D01*
X0059364Y0176599D01*
X0057756Y0175933D01*
X0056015Y0175933D01*
X0055744Y0176046D02*
X0004871Y0176046D01*
X0004871Y0177644D02*
X0053362Y0177644D01*
X0052591Y0179243D02*
X0004871Y0179243D01*
X0004871Y0180841D02*
X0052511Y0180841D01*
X0053033Y0182440D02*
X0004871Y0182440D01*
X0004871Y0184038D02*
X0006428Y0184038D01*
X0005168Y0185637D02*
X0004871Y0185637D01*
X0004871Y0190432D02*
X0004942Y0190432D01*
X0004871Y0192031D02*
X0005881Y0192031D01*
X0004871Y0193629D02*
X0008127Y0193629D01*
X0012416Y0193629D02*
X0186627Y0193629D01*
X0187630Y0194045D02*
X0185522Y0193171D01*
X0183908Y0191558D01*
X0183034Y0189449D01*
X0183034Y0187167D01*
X0183908Y0185058D01*
X0185522Y0183444D01*
X0187630Y0182571D01*
X0189912Y0182571D01*
X0192021Y0183444D01*
X0193635Y0185058D01*
X0194508Y0187167D01*
X0194508Y0189449D01*
X0193635Y0191558D01*
X0192021Y0193171D01*
X0189912Y0194045D01*
X0187630Y0194045D01*
X0190916Y0193629D02*
X0194522Y0193629D01*
X0194522Y0192031D02*
X0193162Y0192031D01*
X0194101Y0190432D02*
X0194522Y0190432D01*
X0194508Y0188834D02*
X0194522Y0188834D01*
X0194508Y0187235D02*
X0194522Y0187235D01*
X0194522Y0185637D02*
X0193874Y0185637D01*
X0194522Y0184038D02*
X0192615Y0184038D01*
X0194522Y0182440D02*
X0120738Y0182440D01*
X0120594Y0182786D02*
X0119364Y0184017D01*
X0117756Y0184683D01*
X0116015Y0184683D01*
X0114407Y0184017D01*
X0113177Y0182786D01*
X0112511Y0181178D01*
X0112511Y0179438D01*
X0113177Y0177830D01*
X0114407Y0176599D01*
X0116015Y0175933D01*
X0117756Y0175933D01*
X0119364Y0176599D01*
X0120594Y0177830D01*
X0121260Y0179438D01*
X0121260Y0181178D01*
X0120594Y0182786D01*
X0119312Y0184038D02*
X0184928Y0184038D01*
X0183668Y0185637D02*
X0015374Y0185637D01*
X0016008Y0187235D02*
X0183034Y0187235D01*
X0183034Y0188834D02*
X0016008Y0188834D01*
X0015601Y0190432D02*
X0183441Y0190432D01*
X0184381Y0192031D02*
X0014662Y0192031D01*
X0014115Y0184038D02*
X0054459Y0184038D01*
X0059312Y0184038D02*
X0114459Y0184038D01*
X0113033Y0182440D02*
X0060738Y0182440D01*
X0061260Y0180841D02*
X0112511Y0180841D01*
X0112591Y0179243D02*
X0061179Y0179243D01*
X0060409Y0177644D02*
X0113362Y0177644D01*
X0115744Y0176046D02*
X0058027Y0176046D01*
X0058324Y0174447D02*
X0115468Y0174447D01*
X0115206Y0174362D02*
X0115861Y0174575D01*
X0116541Y0174683D01*
X0116885Y0174683D01*
X0116885Y0170308D01*
X0116885Y0170308D01*
X0112511Y0170308D01*
X0112511Y0170652D01*
X0112618Y0171332D01*
X0112831Y0171987D01*
X0113144Y0172601D01*
X0113549Y0173158D01*
X0114035Y0173645D01*
X0114593Y0174050D01*
X0115206Y0174362D01*
X0116885Y0174447D02*
X0116885Y0174447D01*
X0116885Y0174683D02*
X0117230Y0174683D01*
X0117910Y0174575D01*
X0118565Y0174362D01*
X0119178Y0174050D01*
X0119735Y0173645D01*
X0120222Y0173158D01*
X0120627Y0172601D01*
X0120940Y0171987D01*
X0121152Y0171332D01*
X0121260Y0170652D01*
X0121260Y0170308D01*
X0116886Y0170308D01*
X0116886Y0170308D01*
X0121260Y0170308D01*
X0121260Y0169964D01*
X0121152Y0169283D01*
X0120940Y0168629D01*
X0120627Y0168015D01*
X0120222Y0167458D01*
X0119735Y0166971D01*
X0119178Y0166566D01*
X0118565Y0166254D01*
X0117910Y0166041D01*
X0117230Y0165933D01*
X0116885Y0165933D01*
X0116885Y0170308D01*
X0112511Y0170308D01*
X0112511Y0169964D01*
X0112618Y0169283D01*
X0112831Y0168629D01*
X0113144Y0168015D01*
X0113549Y0167458D01*
X0114035Y0166971D01*
X0114593Y0166566D01*
X0115206Y0166254D01*
X0115861Y0166041D01*
X0116541Y0165933D01*
X0116885Y0165933D01*
X0116885Y0170308D01*
X0116885Y0170308D01*
X0116885Y0170308D01*
X0116885Y0174683D01*
X0118303Y0174447D02*
X0156415Y0174447D01*
X0156522Y0174775D02*
X0156248Y0173931D01*
X0156115Y0173091D01*
X0161268Y0173091D01*
X0161268Y0178244D01*
X0160427Y0178111D01*
X0159583Y0177836D01*
X0158792Y0177434D01*
X0158074Y0176912D01*
X0157447Y0176284D01*
X0156925Y0175566D01*
X0156522Y0174775D01*
X0157273Y0176046D02*
X0118027Y0176046D01*
X0120409Y0177644D02*
X0159206Y0177644D01*
X0161268Y0177644D02*
X0162227Y0177644D01*
X0162227Y0178244D02*
X0163068Y0178111D01*
X0163912Y0177836D01*
X0164703Y0177434D01*
X0165421Y0176912D01*
X0166048Y0176284D01*
X0166570Y0175566D01*
X0166973Y0174775D01*
X0167247Y0173931D01*
X0167381Y0173091D01*
X0162227Y0173091D01*
X0161268Y0173091D01*
X0161268Y0172131D01*
X0162227Y0172131D01*
X0162227Y0166978D01*
X0163068Y0167111D01*
X0163912Y0167386D01*
X0164703Y0167788D01*
X0165421Y0168310D01*
X0166048Y0168938D01*
X0166570Y0169656D01*
X0166973Y0170447D01*
X0167247Y0171291D01*
X0167381Y0172131D01*
X0162227Y0172131D01*
X0162227Y0173091D01*
X0162227Y0178244D01*
X0164290Y0177644D02*
X0194522Y0177644D01*
X0194522Y0176046D02*
X0166222Y0176046D01*
X0167080Y0174447D02*
X0194522Y0174447D01*
X0194522Y0172849D02*
X0162227Y0172849D01*
X0161268Y0172849D02*
X0120447Y0172849D01*
X0121166Y0171250D02*
X0156261Y0171250D01*
X0156248Y0171291D02*
X0156522Y0170447D01*
X0156925Y0169656D01*
X0157447Y0168938D01*
X0158074Y0168310D01*
X0158792Y0167788D01*
X0159583Y0167386D01*
X0160427Y0167111D01*
X0161268Y0166978D01*
X0161268Y0172131D01*
X0156115Y0172131D01*
X0156248Y0171291D01*
X0156928Y0169652D02*
X0121211Y0169652D01*
X0120646Y0168053D02*
X0158428Y0168053D01*
X0161268Y0168053D02*
X0162227Y0168053D01*
X0162227Y0169652D02*
X0161268Y0169652D01*
X0161268Y0171250D02*
X0162227Y0171250D01*
X0162227Y0174447D02*
X0161268Y0174447D01*
X0161268Y0176046D02*
X0162227Y0176046D01*
X0167234Y0171250D02*
X0194522Y0171250D01*
X0194522Y0169652D02*
X0166567Y0169652D01*
X0165067Y0168053D02*
X0194522Y0168053D01*
X0194522Y0166455D02*
X0118959Y0166455D01*
X0116885Y0166455D02*
X0116885Y0166455D01*
X0116885Y0168053D02*
X0116885Y0168053D01*
X0116885Y0169652D02*
X0116885Y0169652D01*
X0116885Y0171250D02*
X0116885Y0171250D01*
X0116885Y0172849D02*
X0116885Y0172849D01*
X0113324Y0172849D02*
X0060532Y0172849D01*
X0061230Y0171250D02*
X0112605Y0171250D01*
X0112560Y0169652D02*
X0061260Y0169652D01*
X0060687Y0168053D02*
X0113124Y0168053D01*
X0114812Y0166455D02*
X0059015Y0166455D01*
X0060123Y0163258D02*
X0113648Y0163258D01*
X0112710Y0161659D02*
X0061061Y0161659D01*
X0061260Y0160060D02*
X0112511Y0160060D01*
X0111673Y0158462D02*
X0060856Y0158462D01*
X0033240Y0166455D02*
X0031337Y0166455D01*
X0027079Y0166455D02*
X0023463Y0166455D01*
X0025136Y0168053D02*
X0025407Y0168053D01*
X0025562Y0172849D02*
X0024980Y0172849D01*
X0022773Y0174447D02*
X0027769Y0174447D01*
X0030647Y0174447D02*
X0033526Y0174447D01*
X0019895Y0174447D02*
X0014878Y0174447D01*
X0013460Y0174447D02*
X0013460Y0174447D01*
X0012042Y0174447D02*
X0004871Y0174447D01*
X0004871Y0172849D02*
X0009899Y0172849D01*
X0009180Y0171250D02*
X0004871Y0171250D01*
X0004871Y0169652D02*
X0009135Y0169652D01*
X0009699Y0168053D02*
X0004871Y0168053D01*
X0004871Y0166455D02*
X0011386Y0166455D01*
X0013460Y0166455D02*
X0013460Y0166455D01*
X0013460Y0168053D02*
X0013460Y0168053D01*
X0013460Y0169652D02*
X0013460Y0169652D01*
X0013460Y0171250D02*
X0013460Y0171250D01*
X0013460Y0172849D02*
X0013460Y0172849D01*
X0017022Y0172849D02*
X0017688Y0172849D01*
X0017533Y0168053D02*
X0017221Y0168053D01*
X0015534Y0166455D02*
X0019205Y0166455D01*
X0004871Y0164856D02*
X0194522Y0164856D01*
X0194522Y0163258D02*
X0120123Y0163258D01*
X0121061Y0161659D02*
X0194522Y0161659D01*
X0194522Y0160060D02*
X0121260Y0160060D01*
X0120856Y0158462D02*
X0194522Y0158462D01*
X0194522Y0179243D02*
X0121179Y0179243D01*
X0121260Y0180841D02*
X0194522Y0180841D01*
X0146031Y0139280D02*
X0145881Y0139280D01*
X0145881Y0137681D02*
X0146031Y0137681D01*
X0142406Y0137681D02*
X0138420Y0137681D01*
X0138420Y0136083D02*
X0142406Y0136083D01*
X0142726Y0134484D02*
X0138214Y0134484D01*
X0134945Y0137681D02*
X0134795Y0137681D01*
X0134795Y0139280D02*
X0134945Y0139280D01*
X0131675Y0139280D02*
X0121195Y0139280D01*
X0120446Y0137681D02*
X0131320Y0137681D01*
X0131320Y0136083D02*
X0118117Y0136083D01*
X0118235Y0134484D02*
X0131525Y0134484D01*
X0131320Y0132886D02*
X0120494Y0132886D01*
X0121215Y0131287D02*
X0131320Y0131287D01*
X0131320Y0129689D02*
X0121260Y0129689D01*
X0122242Y0128090D02*
X0131743Y0128090D01*
X0131971Y0126492D02*
X0123840Y0126492D01*
X0120532Y0123295D02*
X0120085Y0123295D01*
X0121046Y0121696D02*
X0122130Y0121696D01*
X0121260Y0120098D02*
X0131283Y0120098D01*
X0131170Y0118499D02*
X0120871Y0118499D01*
X0119665Y0116901D02*
X0131170Y0116901D01*
X0131170Y0115302D02*
X0106954Y0115302D01*
X0108552Y0113704D02*
X0114094Y0113704D01*
X0112895Y0112105D02*
X0110151Y0112105D01*
X0111749Y0110507D02*
X0112511Y0110507D01*
X0113771Y0104808D02*
X0102771Y0115808D01*
X0101694Y0113208D02*
X0105453Y0109450D01*
X0104407Y0109017D01*
X0103177Y0107786D01*
X0102511Y0106178D01*
X0102511Y0104438D01*
X0102647Y0104108D01*
X0094542Y0104108D01*
X0093604Y0105047D01*
X0091766Y0105808D01*
X0093604Y0106569D01*
X0095010Y0107976D01*
X0095771Y0109813D01*
X0095771Y0111802D01*
X0095189Y0113208D01*
X0101694Y0113208D01*
X0102797Y0112105D02*
X0095646Y0112105D01*
X0095771Y0110507D02*
X0104396Y0110507D01*
X0104299Y0108908D02*
X0095396Y0108908D01*
X0094344Y0107310D02*
X0102979Y0107310D01*
X0102511Y0105711D02*
X0091999Y0105711D01*
X0089543Y0105711D02*
X0081999Y0105711D01*
X0084344Y0107310D02*
X0087198Y0107310D01*
X0087005Y0104113D02*
X0084538Y0104113D01*
X0085476Y0102514D02*
X0086066Y0102514D01*
X0094538Y0104113D02*
X0102645Y0104113D01*
X0113771Y0104808D02*
X0118771Y0104808D01*
X0121271Y0102308D01*
X0121271Y0090808D01*
X0130271Y0081808D01*
X0133271Y0081808D01*
X0128267Y0080135D02*
X0121260Y0080135D01*
X0121030Y0081733D02*
X0126669Y0081733D01*
X0125070Y0083332D02*
X0120048Y0083332D01*
X0119194Y0086529D02*
X0121873Y0086529D01*
X0123472Y0084930D02*
X0115401Y0084930D01*
X0114577Y0086529D02*
X0113803Y0086529D01*
X0110494Y0083332D02*
X0089743Y0083332D01*
X0089852Y0084930D02*
X0108896Y0084930D01*
X0098797Y0086529D02*
X0093507Y0086529D01*
X0095073Y0088127D02*
X0097199Y0088127D01*
X0114555Y0075339D02*
X0129944Y0075339D01*
X0128971Y0076938D02*
X0119702Y0076938D01*
X0120887Y0078536D02*
X0128971Y0078536D01*
X0130953Y0073741D02*
X0119639Y0073741D01*
X0120861Y0072142D02*
X0131721Y0072142D01*
X0131721Y0070544D02*
X0121260Y0070544D01*
X0121056Y0068945D02*
X0131721Y0068945D01*
X0131721Y0067347D02*
X0120111Y0067347D01*
X0114132Y0073741D02*
X0114071Y0073741D01*
X0127629Y0088127D02*
X0129795Y0088127D01*
X0136747Y0088127D02*
X0136847Y0088127D01*
X0132121Y0112105D02*
X0120876Y0112105D01*
X0119677Y0113704D02*
X0131677Y0113704D01*
X0118933Y0124893D02*
X0115439Y0124893D01*
X0114666Y0126492D02*
X0113840Y0126492D01*
X0112556Y0131287D02*
X0108611Y0131287D01*
X0110617Y0132886D02*
X0113276Y0132886D01*
X0111260Y0134484D02*
X0115536Y0134484D01*
X0115654Y0136083D02*
X0111260Y0136083D01*
X0110638Y0137681D02*
X0113325Y0137681D01*
X0112576Y0139280D02*
X0108728Y0139280D01*
X0102286Y0144075D02*
X0101271Y0144075D01*
X0100648Y0145674D02*
X0102511Y0145674D01*
X0102964Y0147272D02*
X0101988Y0147272D01*
X0103587Y0148871D02*
X0104262Y0148871D01*
X0138065Y0139280D02*
X0142648Y0139280D01*
X0143111Y0049763D02*
X0143175Y0049763D01*
X0139006Y0032180D02*
X0194522Y0032180D01*
X0194522Y0014596D02*
X0114466Y0014596D01*
X0115040Y0012997D02*
X0184340Y0012997D01*
X0183122Y0011399D02*
X0166632Y0011399D01*
X0166632Y0009800D02*
X0182519Y0009800D01*
X0182519Y0008202D02*
X0166632Y0008202D01*
X0166632Y0006603D02*
X0182956Y0006603D01*
X0183937Y0005005D02*
X0166632Y0005005D01*
X0192574Y0005005D02*
X0194522Y0005005D01*
X0194522Y0006603D02*
X0193555Y0006603D01*
X0193993Y0008202D02*
X0194522Y0008202D01*
X0194522Y0009800D02*
X0193993Y0009800D01*
X0194522Y0011399D02*
X0193389Y0011399D01*
X0194522Y0012997D02*
X0192171Y0012997D01*
X0110456Y0012997D02*
X0110087Y0012997D01*
X0110087Y0011399D02*
X0110456Y0011399D01*
X0110456Y0009800D02*
X0110087Y0009800D01*
X0110087Y0008202D02*
X0110456Y0008202D01*
X0110456Y0006603D02*
X0110087Y0006603D01*
X0110087Y0014596D02*
X0110456Y0014596D01*
D12*
X0133407Y0115137D02*
X0133407Y0117763D01*
X0136033Y0117763D01*
X0136033Y0115137D01*
X0133407Y0115137D01*
X0133407Y0116011D02*
X0136033Y0116011D01*
X0136033Y0116885D02*
X0133407Y0116885D01*
X0133407Y0117759D02*
X0136033Y0117759D01*
X0133407Y0121137D02*
X0133407Y0123763D01*
X0136033Y0123763D01*
X0136033Y0121137D01*
X0133407Y0121137D01*
X0133407Y0122011D02*
X0136033Y0122011D01*
X0136033Y0122885D02*
X0133407Y0122885D01*
X0133407Y0123759D02*
X0136033Y0123759D01*
X0133557Y0129440D02*
X0133557Y0132066D01*
X0136183Y0132066D01*
X0136183Y0129440D01*
X0133557Y0129440D01*
X0133557Y0130314D02*
X0136183Y0130314D01*
X0136183Y0131188D02*
X0133557Y0131188D01*
X0133557Y0132062D02*
X0136183Y0132062D01*
X0133557Y0135440D02*
X0133557Y0138066D01*
X0136183Y0138066D01*
X0136183Y0135440D01*
X0133557Y0135440D01*
X0133557Y0136314D02*
X0136183Y0136314D01*
X0136183Y0137188D02*
X0133557Y0137188D01*
X0133557Y0138062D02*
X0136183Y0138062D01*
X0144643Y0138263D02*
X0144643Y0135637D01*
X0144643Y0138263D02*
X0147269Y0138263D01*
X0147269Y0135637D01*
X0144643Y0135637D01*
X0144643Y0136511D02*
X0147269Y0136511D01*
X0147269Y0137385D02*
X0144643Y0137385D01*
X0144643Y0138259D02*
X0147269Y0138259D01*
X0144643Y0132263D02*
X0144643Y0129637D01*
X0144643Y0132263D02*
X0147269Y0132263D01*
X0147269Y0129637D01*
X0144643Y0129637D01*
X0144643Y0130511D02*
X0147269Y0130511D01*
X0147269Y0131385D02*
X0144643Y0131385D01*
X0144643Y0132259D02*
X0147269Y0132259D01*
X0038584Y0128621D02*
X0038584Y0125995D01*
X0035958Y0125995D01*
X0035958Y0128621D01*
X0038584Y0128621D01*
X0038584Y0126869D02*
X0035958Y0126869D01*
X0035958Y0127743D02*
X0038584Y0127743D01*
X0038584Y0128617D02*
X0035958Y0128617D01*
X0031084Y0128621D02*
X0031084Y0125995D01*
X0028458Y0125995D01*
X0028458Y0128621D01*
X0031084Y0128621D01*
X0031084Y0126869D02*
X0028458Y0126869D01*
X0028458Y0127743D02*
X0031084Y0127743D01*
X0031084Y0128617D02*
X0028458Y0128617D01*
X0031084Y0122621D02*
X0031084Y0119995D01*
X0028458Y0119995D01*
X0028458Y0122621D01*
X0031084Y0122621D01*
X0031084Y0120869D02*
X0028458Y0120869D01*
X0028458Y0121743D02*
X0031084Y0121743D01*
X0031084Y0122617D02*
X0028458Y0122617D01*
X0038584Y0122621D02*
X0038584Y0119995D01*
X0035958Y0119995D01*
X0035958Y0122621D01*
X0038584Y0122621D01*
X0038584Y0120869D02*
X0035958Y0120869D01*
X0035958Y0121743D02*
X0038584Y0121743D01*
X0038584Y0122617D02*
X0035958Y0122617D01*
D13*
X0037082Y0107808D03*
X0037082Y0139324D03*
X0037082Y0170308D03*
X0037082Y0075308D03*
D14*
X0029208Y0075308D03*
X0021334Y0075308D03*
X0013460Y0075308D03*
X0013460Y0107808D03*
X0021334Y0107808D03*
X0029208Y0107808D03*
X0056885Y0110308D03*
X0056885Y0120308D03*
X0056885Y0130308D03*
X0056885Y0140308D03*
X0056885Y0150308D03*
X0056885Y0160308D03*
X0056885Y0170308D03*
X0056885Y0180308D03*
X0029208Y0170308D03*
X0021334Y0170308D03*
X0013460Y0170308D03*
X0013460Y0139324D03*
X0021334Y0139324D03*
X0029208Y0139324D03*
X0056885Y0100308D03*
X0056885Y0090308D03*
X0056885Y0080308D03*
X0056885Y0070308D03*
X0071885Y0070308D03*
X0081885Y0070308D03*
X0091885Y0070308D03*
X0101885Y0070308D03*
X0116885Y0070308D03*
X0116885Y0080308D03*
X0116885Y0090308D03*
X0116885Y0100308D03*
X0116885Y0110308D03*
X0116885Y0120308D03*
X0116885Y0130308D03*
X0116885Y0140308D03*
X0116885Y0150308D03*
X0116885Y0160308D03*
X0116885Y0170308D03*
X0116885Y0180308D03*
X0106885Y0145308D03*
X0106885Y0135308D03*
X0106885Y0105308D03*
X0106885Y0095308D03*
D15*
X0161748Y0023005D03*
X0161748Y0172611D03*
D16*
X0090771Y0110808D03*
X0080771Y0110808D03*
X0080771Y0100808D03*
X0080771Y0090808D03*
X0090771Y0090808D03*
X0090771Y0100808D03*
D17*
X0161582Y0007816D03*
D18*
X0151582Y0007816D03*
X0141582Y0007816D03*
D19*
X0110271Y0010308D03*
D20*
X0100271Y0010308D03*
X0100271Y0020308D03*
X0100271Y0030308D03*
X0100271Y0040308D03*
X0110271Y0040308D03*
X0110271Y0030308D03*
X0110271Y0020308D03*
D21*
X0133271Y0037308D03*
X0136771Y0037308D03*
X0140271Y0037308D03*
X0140271Y0046308D03*
X0136771Y0046308D03*
X0133271Y0046308D03*
D22*
X0133271Y0078308D03*
X0133271Y0081808D03*
X0133271Y0085308D03*
D23*
X0069271Y0018808D03*
X0040771Y0031308D03*
D24*
X0075271Y0032808D02*
X0076271Y0032808D01*
X0076271Y0036808D01*
X0080271Y0040808D01*
X0084771Y0041308D02*
X0084771Y0027308D01*
X0086771Y0025308D01*
X0095271Y0025308D01*
X0096771Y0026808D01*
X0097271Y0026808D01*
X0098271Y0025808D01*
X0102271Y0025808D01*
X0103271Y0026808D01*
X0103771Y0026808D01*
X0110271Y0020308D01*
X0088271Y0039308D02*
X0097271Y0048308D01*
X0084771Y0041308D02*
X0057271Y0068808D01*
X0057271Y0070308D01*
X0056885Y0070308D01*
X0080771Y0100808D02*
X0083771Y0100808D01*
X0088771Y0095808D01*
X0092771Y0095808D01*
X0101271Y0087308D01*
X0109771Y0087308D01*
X0116771Y0080308D01*
X0116885Y0080308D01*
X0116271Y0080308D01*
X0111771Y0075808D01*
X0111771Y0072308D01*
X0106771Y0067308D01*
X0105771Y0089308D02*
X0096771Y0098308D01*
X0094271Y0100808D02*
X0095271Y0101808D01*
X0104271Y0101808D01*
X0105271Y0100808D01*
X0111771Y0100808D01*
X0112271Y0100308D01*
X0116885Y0100308D01*
X0111271Y0090308D02*
X0110271Y0089308D01*
X0105771Y0089308D01*
X0094271Y0100808D02*
X0090771Y0100808D01*
X0070271Y0115308D02*
X0085271Y0130308D01*
X0091771Y0130308D01*
X0106771Y0145308D01*
X0106885Y0145308D01*
X0108771Y0152308D02*
X0103771Y0152308D01*
X0098271Y0146808D01*
X0098271Y0143808D01*
X0108771Y0152308D02*
X0116771Y0160308D01*
X0116885Y0160308D01*
X0116771Y0130308D02*
X0116885Y0130308D01*
X0116771Y0130308D02*
X0124271Y0122808D01*
X0134271Y0122808D01*
X0134720Y0122450D01*
X0134771Y0122808D01*
X0134771Y0124808D01*
X0134271Y0125308D01*
X0134271Y0128308D01*
X0135271Y0129308D01*
X0135271Y0129808D01*
X0134870Y0130753D01*
X0135271Y0130308D01*
X0135271Y0129808D01*
X0136271Y0129808D01*
X0137771Y0131308D01*
X0139271Y0131308D01*
X0139771Y0130808D01*
X0145771Y0130808D01*
X0145956Y0130950D01*
X0116885Y0120308D02*
X0116771Y0120308D01*
X0111771Y0125308D01*
X0094271Y0125308D01*
X0037271Y0121308D02*
X0037271Y0118808D01*
X0036771Y0118308D01*
X0036771Y0107808D01*
X0037082Y0107808D01*
X0029271Y0107808D02*
X0029208Y0107808D01*
X0029271Y0107808D02*
X0029271Y0118308D01*
X0029771Y0118808D01*
X0029771Y0121308D01*
D25*
X0073771Y0124308D03*
X0084771Y0150308D03*
X0096771Y0098308D03*
X0111271Y0090308D03*
X0106771Y0067308D03*
X0097271Y0048308D03*
X0088271Y0039308D03*
X0080271Y0040808D03*
X0075271Y0032808D03*
X0086271Y0084308D03*
D26*
X0133271Y0085308D02*
X0138271Y0085308D01*
X0133271Y0078308D02*
X0133271Y0074808D01*
X0134271Y0073808D01*
X0134271Y0050308D01*
X0133771Y0049808D01*
X0133771Y0049308D01*
X0133271Y0048808D01*
X0133271Y0046308D01*
X0136771Y0046308D02*
X0136771Y0043308D01*
X0135771Y0042308D01*
X0135771Y0041308D01*
X0136771Y0040308D01*
X0136771Y0037308D01*
X0133771Y0034308D02*
X0133771Y0033808D01*
X0140771Y0026808D01*
X0155271Y0026808D01*
X0158771Y0023308D01*
X0161271Y0023308D01*
X0161748Y0023005D01*
X0140271Y0037308D02*
X0140271Y0039808D01*
X0139771Y0040308D01*
X0139771Y0040808D01*
X0139271Y0041308D01*
X0139271Y0042308D01*
X0139771Y0042808D01*
X0139771Y0043808D01*
X0140271Y0044308D01*
X0140271Y0046308D01*
X0140771Y0046808D01*
X0144271Y0046808D01*
X0133271Y0037308D02*
X0133271Y0034808D01*
X0133771Y0034308D01*
X0135271Y0112308D02*
X0135271Y0113808D01*
X0134771Y0114308D01*
X0134771Y0116308D01*
X0134720Y0116450D01*
X0037271Y0127308D02*
X0036771Y0126808D01*
X0035771Y0126808D01*
X0034771Y0127808D01*
X0032771Y0127808D01*
X0032271Y0127308D01*
X0029771Y0127308D01*
X0029271Y0127808D01*
X0029271Y0129308D01*
X0022271Y0136308D01*
X0022271Y0136808D01*
X0021771Y0137308D01*
X0021771Y0139308D01*
X0021334Y0139324D01*
D27*
X0135271Y0112308D03*
X0138271Y0085308D03*
X0144271Y0046808D03*
D28*
X0070271Y0115308D03*
X0094271Y0125308D03*
X0098271Y0143808D03*
M02*
