%
M48
M72
T01C0.0120
T02C0.0150
T03C0.0236
T04C0.0315
T05C0.0350
T06C0.0354
T07C0.0394
T08C0.0512
T09C0.0787
%
T01
X7027Y11531
X9427Y12531
X9827Y14381
T02
X14427Y4681
X13827Y8531
X13527Y11231
T03
X4077Y3131
X6927Y1881
X7527Y3281
X8027Y4081
X8827Y3931
X9727Y4831
X10677Y6731
X8627Y8431
X9677Y9831
X11127Y9031
X7377Y12431
X8477Y15031
T04
X5689Y7031
X5689Y8031
X5689Y9031
X5689Y10031
X5689Y11031
X5689Y12031
X5689Y13031
X5689Y14031
X5689Y15031
X5689Y16031
X5689Y17031
X5689Y18031
X3708Y17031
X2921Y17031
X2133Y17031
X1346Y17031
X1346Y13932
X2133Y13932
X2921Y13932
X3708Y13932
X3708Y10781
X2921Y10781
X2133Y10781
X1346Y10781
X1346Y7531
X2133Y7531
X2921Y7531
X3708Y7531
X7189Y7031
X8189Y7031
X9189Y7031
X10189Y7031
X11689Y7031
X11689Y8031
X11689Y9031
X11689Y10031
X11689Y11031
X11689Y12031
X11689Y13031
X11689Y14031
X11689Y15031
X11689Y16031
X11689Y17031
X11689Y18031
X10689Y14531
X10689Y13531
X10689Y10531
X10689Y9531
T05
X14158Y782
X15158Y782
X16158Y782
T06
X8077Y9081
X8077Y10081
X8077Y11081
X9077Y11081
X9077Y10081
X9077Y9081
T07
X10027Y1031
X10027Y2031
X10027Y3031
X10027Y4031
X11027Y4031
X11027Y3031
X11027Y2031
X11027Y1031
T08
X16175Y2300
X16175Y17261
T09
X977Y931
X13025Y2300
X18826Y880
X18877Y18831
X1027Y18831
M30
